<svg preserveAspectRatio="none" width="100%" height="100%" overflow="visible" style="display: block;" viewBox="0 0 80.7278 107.56" fill="none" xmlns="http://www.w3.org/2000/svg">
<g id="Group 1000008375">
<path id="Vector" d="M43.12 0C45.0456 0.931901 46.0859 2.19102 45.9602 4.42428C45.7835 7.56229 45.9155 10.7177 45.9156 13.8656C45.9156 14.1608 45.7992 14.5406 45.9396 14.734C46.267 15.1849 46.7179 15.5462 47.1189 15.9437C47.4067 15.54 47.9333 15.1426 47.944 14.7316C48.0175 11.9299 47.9335 9.12384 48.0185 6.32278C48.0388 5.65738 48.3408 4.68827 48.8181 4.43637C49.3004 4.18179 50.2792 4.46073 50.8376 4.82071C56.1369 8.23702 59.1656 13.1906 60.3614 19.3099C60.5828 20.4434 60.4629 21.6486 60.7302 22.7658C60.8613 23.3134 61.5092 24.1326 61.9403 24.1433C63.6358 24.1856 63.593 25.2579 63.6447 26.4293C63.7045 27.7827 62.8657 28.1758 61.7665 28.3436C61.5742 28.3729 61.3737 28.3481 61.1769 28.3481C47.257 28.3481 33.3372 28.3494 19.4173 28.3467C17.5502 28.3463 16.9006 27.6952 16.9772 25.9347C17.0256 24.8213 17.3924 24.0479 18.7234 24.2091C20.0458 24.3693 20.461 23.7558 20.553 22.4333C21.0887 14.7277 24.267 8.51129 31.036 4.40973C32.1555 3.73139 33.1859 4.36165 33.2064 5.80656C33.2454 8.56047 33.2509 11.3159 33.2011 14.0695C33.1821 15.122 33.2171 16.1948 34.5075 16.1896C35.8814 16.184 35.8864 15.0144 35.8813 13.9558C35.8656 10.7096 35.9314 7.46186 35.855 4.21732C35.8078 2.21379 36.6175 0.899489 38.5031 0.100472C40.0162 0 41.4992 0 43.12 0Z" fill="var(--fill-0, #838383)"/>
<path id="Vector_2" d="M47.3919 89.9913C47.3919 87.3936 47.3912 84.9344 47.3921 82.4752C47.393 80.2084 47.6615 77.9162 46.2359 75.8728C45.4225 74.7069 46.1369 73.5268 46.6006 72.4718C48.8202 67.4224 51.0906 62.3947 53.3928 57.3823C54.421 55.1436 54.6494 54.9845 57.0015 56.0993C61.7898 58.369 66.6091 60.6143 71.2021 63.2429C75.1718 65.5148 77.1538 69.386 77.7845 73.851C78.3911 78.1459 78.7934 82.4696 79.2965 86.7794C79.777 90.8957 80.4456 94.9991 80.7128 99.1288C80.9989 103.551 77.1526 107.79 72.4991 107.551C67.1577 107.276 61.7914 107.487 56.3434 107.487C56.3434 103.764 56.3434 100.103 56.3434 96.2656C58.5133 96.2656 60.7071 96.2682 62.9008 96.2649C65.1336 96.2615 65.6972 95.7042 65.6997 93.4605C65.7018 91.5915 65.7304 89.7218 65.6828 87.854C65.6673 87.2448 65.6413 86.4439 65.2739 86.0846C64.8249 85.6456 63.9904 85.3695 63.3645 85.4335C63.0162 85.4691 62.5483 86.3178 62.4931 86.8381C62.3642 88.0541 62.466 89.2932 62.4484 90.5225C62.4254 92.1319 61.8392 92.7194 60.278 92.721C56.8351 92.7245 53.3922 92.724 49.9494 92.7214C47.9167 92.7198 47.4153 92.2084 47.3919 89.9913Z" fill="var(--fill-0, #838383)"/>
<path id="Vector_3" d="M33.8084 76.2328C33.8136 78.3254 34.3219 78.838 36.2899 78.8424C38.4047 78.8472 40.5197 78.8594 42.6343 78.8367C43.6712 78.8256 44.1564 79.2636 44.1509 80.3238C44.132 83.9632 44.1205 87.6029 44.1564 91.2421C44.1687 92.4862 43.3624 92.6601 42.4523 92.7154C38.5413 92.9531 37.2099 94.1109 36.0856 97.9126C35.4833 99.9491 36.5496 101.657 36.8508 103.51C37.0644 104.824 37.5133 106.1 37.8823 107.487C31.2385 107.487 24.6595 107.487 18.0806 107.487C16.4576 107.487 14.8199 107.352 13.2157 107.525C11.6254 107.697 10.1919 105.968 10.1904 104.698C10.1804 96.5341 10.1872 88.3699 10.1828 80.2057C10.1822 79.1955 10.7132 78.8312 11.6649 78.8375C14.2714 78.8549 16.8786 78.8151 19.4846 78.8561C20.6866 78.8749 21.1273 78.3639 21.1271 77.1847C21.1266 74.4928 21.2415 74.4141 23.9183 74.4141C26.5741 74.414 29.2321 74.4776 31.8849 74.3871C33.2023 74.3422 33.7918 74.8313 33.8084 76.2328Z" fill="var(--fill-0, #838383)"/>
<path id="Vector_4" d="M23.4731 34.6051C23.561 33.7499 23.6489 33.0356 23.7445 32.2586C34.9552 32.2586 46.1009 32.2586 57.3431 32.2586C58.5472 38.9476 57.0561 44.9131 52.1326 49.6829C45.6608 55.9527 35.3847 55.9645 28.9827 49.6856C24.7586 45.5427 23.098 40.5414 23.4731 34.6051Z" fill="var(--fill-0, #838383)"/>
<path id="Vector_5" d="M17.0718 74.6668C14.8578 74.8017 12.7178 74.6453 10.6989 75.0675C8.21372 75.5872 6.93919 77.612 6.93799 80.1918C6.93457 87.4613 6.9368 94.7308 6.9368 102.303C5.41683 102.126 3.96739 102.105 2.59927 101.761C0.809219 101.31 -0.297544 98.9801 0.0705087 96.9513C0.602051 94.0216 0.901516 91.0504 1.33047 88.1012C1.8693 84.3967 2.35334 80.681 3.02486 77.0001C3.48432 74.4815 4.00614 71.9341 4.88513 69.5411C6.47717 65.2067 9.79253 62.4146 13.9262 60.573C17.3153 59.0631 20.7563 57.6703 24.154 56.1795C25.6986 55.5018 26.364 55.6642 27.0984 57.2033C28.8658 60.9071 30.6151 64.6197 32.3494 68.3392C33.0203 69.778 32.6851 70.2758 31.0996 70.2782C27.5103 70.2836 23.9206 70.3113 20.3319 70.2663C18.6007 70.2446 18.0954 70.7221 17.8415 72.6667C17.7538 73.3383 17.4205 73.9778 17.0718 74.6668Z" fill="var(--fill-0, #838383)"/>
<path id="Vector_6" d="M45.9965 65.6572C45.1209 68.2968 44.336 70.8434 43.4859 73.3681C43.1923 74.2402 42.6505 74.7867 41.5408 74.7335C37.8442 74.5566 38.0279 75.5607 36.6383 71.2187C35.4348 67.4579 34.1544 63.7218 32.9175 59.9717C32.4645 58.5983 33.0198 57.6221 34.4177 57.6024C38.4491 57.5457 42.4824 57.542 46.5136 57.6047C47.9127 57.6265 48.3426 58.6167 47.8087 60.2748C47.2406 62.0396 46.6452 63.7957 45.9965 65.6572Z" fill="var(--fill-0, #838383)"/>
<path id="Vector_7" d="M52.4105 106.832C52.0337 107.145 51.6603 107.458 51.2821 107.464C48.5784 107.506 45.8736 107.488 43.1692 107.486C41.4031 107.485 39.819 106.488 39.5821 104.782C39.2998 102.749 38.9824 100.634 40.109 98.6678C40.969 97.1668 42.2459 96.3269 43.9362 96.2842C46.687 96.2147 49.4409 96.2654 52.4116 96.2654C52.4116 99.7585 52.4116 103.224 52.4105 106.832Z" fill="var(--fill-0, #838383)"/>
</g>
</svg>
