<svg preserveAspectRatio="none" width="100%" height="100%" overflow="visible" style="display: block;" viewBox="0 0 107 107" fill="none" xmlns="http://www.w3.org/2000/svg">
<g id="Frame">
<path id="Vector" d="M76.0592 66.6075L63.5758 60.6333C68.5713 54.9691 71.3294 47.6774 71.3333 40.125C71.3333 22.9158 57.3342 8.91667 40.125 8.91667C22.9158 8.91667 8.91667 22.9158 8.91667 40.125C8.91667 57.3342 22.9158 71.3333 40.125 71.3333C47.9717 71.3333 55.1496 68.3908 60.6333 63.5758L66.6075 76.0592L88.8992 98.3508L98.3508 88.8992L76.0592 66.6075ZM40.125 62.4167C27.82 62.4167 17.8333 52.43 17.8333 40.125C17.8333 27.82 27.82 17.8333 40.125 17.8333C52.43 17.8333 62.4167 27.82 62.4167 40.125C62.4167 52.43 52.43 62.4167 40.125 62.4167Z" fill="var(--fill-0, #838383)"/>
</g>
</svg>
