<svg preserveAspectRatio="none" width="100%" height="100%" overflow="visible" style="display: block;" viewBox="0 0 1930.05 1134.03" fill="none" xmlns="http://www.w3.org/2000/svg">
<g id="Layer_1">
<path id="Vector" d="M0 1134V0H1930V1134" fill="var(--fill-0, #01ADBE)"/>
<g id="Group">
<g id="Vector_2">
</g>
<g id="Vector_3">
</g>
<g id="Vector_4">
</g>
<g id="Vector_5">
</g>
<g id="Vector_6">
</g>
<g id="Vector_7">
</g>
<g id="Vector_8">
</g>
<g id="Vector_9">
</g>
<g id="Vector_10">
</g>
<g id="Vector_11">
</g>
<g id="Vector_12">
</g>
<path id="Vector_13" d="M686.606 1080.11C701.211 1080.11 713.051 1068.27 713.051 1053.67C713.051 1039.06 701.211 1027.22 686.606 1027.22C672.001 1027.22 660.161 1039.06 660.161 1053.67C660.161 1068.27 672.001 1080.11 686.606 1080.11Z" fill="var(--fill-0, #27BBC9)"/>
<path id="Vector_14" d="M514.383 803.56C528.988 803.56 540.828 791.72 540.828 777.115C540.828 762.509 528.988 750.669 514.383 750.669C499.778 750.669 487.939 762.509 487.939 777.115C487.939 791.72 499.778 803.56 514.383 803.56Z" fill="var(--fill-0, #27BBC9)"/>
<path id="Vector_15" d="M602.971 651.125L561.489 692.608C551.16 702.937 551.16 719.679 561.489 730.008C571.817 740.337 588.559 740.337 598.888 730.008L640.37 688.524C650.698 678.196 650.698 661.453 640.37 651.125C630.042 640.796 613.3 640.796 602.971 651.125Z" fill="var(--fill-0, #27BBC9)"/>
<path id="Vector_16" d="M970.857 881.604L929.375 923.088C919.047 933.416 919.047 950.159 929.375 960.488C939.703 970.816 956.445 970.816 966.774 960.488L1008.26 919.004C1018.58 908.675 1018.58 891.933 1008.26 881.604C997.928 871.275 981.186 871.275 970.857 881.604Z" fill="var(--fill-0, #27BBC9)"/>
<path id="Vector_17" d="M856.623 771.45L898.105 729.967C908.433 719.638 908.433 702.895 898.105 692.567C887.777 682.238 871.035 682.238 860.706 692.567L819.224 734.05C808.895 744.379 808.895 761.121 819.224 771.45C829.552 781.779 846.294 781.779 856.623 771.45Z" fill="var(--fill-0, #27BBC9)"/>
<path id="Vector_18" d="M814.466 888.404L732.959 969.913C722.63 980.242 722.63 996.985 732.959 1007.31C743.287 1017.64 760.029 1017.64 770.358 1007.31L851.865 925.804C862.193 915.475 862.193 898.732 851.865 888.404C841.536 878.075 824.794 878.075 814.466 888.404Z" fill="var(--fill-0, #27BBC9)"/>
<path id="Vector_19" d="M1165.39 986.259L1077.69 1073.96C1067.36 1084.29 1067.36 1101.03 1077.69 1111.36C1088.01 1121.69 1104.76 1121.69 1115.08 1111.36L1202.78 1023.66C1213.11 1013.33 1213.11 996.587 1202.78 986.259C1192.46 975.93 1175.71 975.93 1165.39 986.259Z" fill="var(--fill-0, #27BBC9)"/>
<path id="Vector_20" d="M796.02 682.463C806.348 672.134 806.348 655.392 796.02 645.063C785.691 634.734 768.949 634.734 758.621 645.063L698.441 705.244C688.112 715.573 688.112 732.316 698.441 742.644C708.769 752.973 725.511 752.973 735.84 742.644L796.02 682.463Z" fill="var(--fill-0, #27BBC9)"/>
<path id="Vector_21" d="M1109.46 967.388L1169.64 907.207C1179.97 896.878 1179.97 880.136 1169.64 869.807C1159.31 859.478 1142.57 859.478 1132.24 869.807L1072.06 929.988C1061.73 940.317 1061.73 957.06 1072.06 967.388C1082.39 977.717 1099.13 977.717 1109.46 967.388Z" fill="var(--fill-0, #27BBC9)"/>
<path id="Vector_22" d="M393.312 561.602L384.351 570.563C374.022 580.891 374.022 597.634 384.351 607.963C394.679 618.291 411.421 618.291 421.75 607.963L430.711 599.001C441.039 588.673 441.039 571.93 430.711 561.602C420.382 551.273 403.64 551.273 393.312 561.602Z" fill="var(--fill-0, #27BBC9)"/>
<path id="Vector_23" d="M642.532 525.813C657.137 525.813 668.976 513.972 668.976 499.367C668.976 484.762 657.137 472.921 642.532 472.921C627.927 472.921 616.087 484.762 616.087 499.367C616.087 513.972 627.927 525.813 642.532 525.813Z" fill="var(--fill-0, #27BBC9)"/>
<path id="Vector_24" d="M559.488 470.22C569.817 459.892 569.817 443.149 559.488 432.82C549.16 422.492 532.418 422.492 522.09 432.82L455.357 499.554C445.029 509.883 445.029 526.626 455.357 536.954C465.686 547.283 482.428 547.283 492.756 536.954L559.488 470.22Z" fill="var(--fill-0, #27BBC9)"/>
<path id="Vector_25" d="M1930 1134V0L1864.89 0.0337172V0.52449H655.198L605.908 49.8153C595.58 60.144 578.838 60.144 568.509 49.8153C558.181 39.4866 558.181 22.7441 568.509 12.4154L580.404 0.520744H356.018L332.147 24.3925C321.818 34.7212 321.818 51.4637 332.147 61.7924C342.475 72.1211 359.217 72.1211 369.546 61.7924L381.661 49.6767C391.99 39.348 408.732 39.348 419.06 49.6767C429.388 60.0054 429.388 76.7479 419.06 87.0766L332.769 173.37C322.44 183.699 322.44 200.441 332.769 210.77C343.097 221.099 359.839 221.099 370.168 210.77L502.542 78.3925C512.87 68.0638 529.612 68.0638 539.94 78.3925C550.269 88.7212 550.269 105.464 539.94 115.792L466.278 189.457C455.949 199.786 455.949 216.528 466.278 226.857C476.606 237.186 493.348 237.186 503.677 226.857L603.233 127.297C613.562 116.969 630.304 116.969 640.632 127.297C650.961 137.626 650.961 154.369 640.632 164.697L574.271 231.06C563.943 241.389 563.943 258.132 574.271 268.46C584.6 278.789 601.342 278.789 611.67 268.46L643.517 236.612C653.845 226.284 670.587 226.284 680.916 236.612C691.244 246.941 691.244 263.684 680.916 274.012L586.023 368.908C575.695 379.236 575.695 395.979 586.023 406.308C596.352 416.636 613.094 416.636 623.422 406.308L680.927 348.801C691.255 338.472 707.997 338.472 718.326 348.801C728.654 359.13 728.654 375.872 718.326 386.201L687.663 416.865C677.334 427.193 677.334 443.936 687.663 454.265C697.991 464.593 714.733 464.593 725.062 454.265L1042.16 137.162L819.909 359.414C830.238 349.086 846.98 349.086 857.308 359.414C867.637 369.743 867.637 386.485 857.308 396.814L669.658 584.469C659.33 594.798 659.33 611.54 669.658 621.869C679.987 632.198 696.729 632.198 707.057 621.869L793.622 535.302C803.95 524.973 820.692 524.973 831.021 535.302C841.349 545.631 841.349 562.373 831.021 572.702L825.034 578.689C814.706 589.017 814.706 605.76 825.034 616.089C835.363 626.417 852.105 626.417 862.433 616.089L910.089 568.431C920.418 558.102 937.16 558.102 947.488 568.431C957.817 578.76 957.817 595.502 947.488 605.831L927.337 625.983C917.009 636.311 917.009 653.054 927.337 663.383C937.665 673.711 954.407 673.711 964.736 663.383L1036.14 591.981C1046.46 581.652 1063.21 581.652 1073.53 591.981C1083.86 602.309 1083.86 619.052 1073.53 629.381L881.108 821.812C870.78 832.141 870.78 848.883 881.108 859.212C891.437 869.541 908.179 869.541 918.507 859.212L1041.76 735.957C1052.09 725.628 1068.83 725.628 1079.16 735.957C1089.49 746.286 1089.49 763.028 1079.16 773.357L1034.81 817.703C1024.48 828.031 1024.48 844.774 1034.81 855.102C1045.14 865.431 1061.88 865.431 1072.21 855.102L1205.58 721.736C1215.9 711.407 1232.65 711.407 1242.97 721.736C1253.3 732.065 1253.3 748.807 1242.97 759.136L1197.93 804.182C1187.6 814.511 1187.6 831.253 1197.93 841.582C1208.26 851.911 1225 851.911 1235.33 841.582L1258.1 818.808C1268.43 808.479 1285.17 808.479 1295.5 818.808C1305.83 829.136 1305.83 845.879 1295.5 856.208L1229.72 921.986C1219.4 932.315 1219.4 949.057 1229.72 959.386C1240.05 969.715 1256.79 969.715 1267.12 959.386L1279.24 947.27C1289.57 936.942 1306.31 936.942 1316.64 947.27C1326.97 957.599 1326.97 974.342 1316.64 984.67L1230.35 1070.96C1220.02 1081.29 1220.02 1098.04 1230.35 1108.36C1240.67 1118.69 1257.42 1118.69 1267.74 1108.36L1400.12 975.986C1410.45 965.657 1427.19 965.657 1437.52 975.986C1447.85 986.315 1447.85 1003.06 1437.52 1013.39L1363.85 1087.05C1353.53 1097.38 1353.53 1114.12 1363.85 1124.45C1374.18 1134.78 1390.92 1134.78 1401.25 1124.45L1500.81 1024.89C1511.14 1014.56 1527.88 1014.56 1538.21 1024.89C1548.54 1035.22 1548.54 1051.96 1538.21 1062.29L1471.85 1128.65C1470.2 1130.3 1468.82 1132.11 1467.7 1134.03H1930.05L1930 1134ZM712.043 93.2693L706.596 98.7165C696.268 109.045 679.526 109.045 669.198 98.7165C658.869 88.3878 658.869 71.6453 669.198 61.3166L674.645 55.8694C684.973 45.5407 701.715 45.5407 712.043 55.8694C722.372 66.1981 722.372 82.9406 712.043 93.2693ZM825.499 278.999L784.286 320.212C773.958 330.541 757.216 330.541 746.887 320.212C736.559 309.884 736.559 293.141 746.887 282.813L788.1 241.599C798.428 231.27 815.17 231.27 825.499 241.599C835.827 251.928 835.827 268.67 825.499 278.999ZM931.331 173.164L891.474 213.022C881.146 223.35 864.404 223.35 854.075 213.022C843.747 202.693 843.747 185.95 854.075 175.622L893.932 135.764C904.26 125.436 921.002 125.436 931.331 135.764C941.659 146.093 941.659 162.835 931.331 173.164ZM997.973 330.908C1008.3 320.58 1025.04 320.58 1035.37 330.908C1045.7 341.237 1045.7 357.979 1035.37 368.308C1025.04 378.637 1008.3 378.637 997.973 368.308C987.644 357.979 987.644 341.237 997.973 330.908ZM896.97 506.71C886.641 517.039 869.899 517.039 859.571 506.71C849.243 496.381 849.243 479.639 859.571 469.31L933.353 395.525C943.682 385.197 960.424 385.197 970.752 395.525C981.081 405.854 981.081 422.597 970.752 432.925L896.97 506.71ZM1013.43 539.839C1003.11 550.168 986.363 550.168 976.035 539.839C965.706 529.51 965.706 512.768 976.035 502.439L1060.69 417.779C1071.02 407.45 1087.76 407.45 1098.09 417.779C1108.42 428.108 1108.42 444.85 1098.09 455.179L1013.43 539.839ZM1188.05 664.409L1145.1 707.357C1134.77 717.686 1118.03 717.686 1107.7 707.357C1097.37 697.029 1097.37 680.286 1107.7 669.957L1150.65 627.009C1160.98 616.68 1177.72 616.68 1188.05 627.009C1198.37 637.338 1198.37 654.08 1188.05 664.409ZM1361.43 790.204C1351.11 800.533 1334.36 800.533 1324.04 790.204C1313.71 779.876 1313.71 763.133 1324.04 752.804C1334.36 742.476 1351.11 742.476 1361.43 752.804C1371.76 763.133 1371.76 779.876 1361.43 790.204ZM1503.44 947.375C1493.12 957.704 1476.37 957.704 1466.04 947.375C1455.72 937.047 1455.72 920.304 1466.04 909.975L1526.49 849.524C1536.82 839.195 1553.56 839.195 1563.89 849.524C1574.22 859.853 1574.22 876.595 1563.89 886.924L1503.44 947.375ZM1609.58 990.829L1604.14 996.276C1593.81 1006.61 1577.07 1006.61 1566.74 996.276C1556.41 985.948 1556.41 969.205 1566.74 958.877L1572.18 953.429C1582.51 943.101 1599.25 943.101 1609.58 953.429C1619.91 963.758 1619.91 980.501 1609.58 990.829Z" fill="var(--fill-0, #27BBC9)"/>
<path id="Vector_26" d="M149.942 280.887C161.822 272.391 164.566 255.873 156.07 243.993C147.574 232.112 131.056 229.369 119.177 237.865C107.297 246.361 104.553 262.879 113.049 274.759C121.545 286.639 138.063 289.383 149.942 280.887Z" fill="var(--fill-0, #27BBC9)"/>
<path id="Vector_27" d="M309.306 271.099C317.693 259.142 314.8 242.649 302.844 234.261C290.887 225.874 274.395 228.767 266.008 240.724C257.62 252.68 260.513 269.173 272.47 277.561C284.426 285.949 300.918 283.055 309.306 271.099Z" fill="var(--fill-0, #27BBC9)"/>
<path id="Vector_28" d="M501.279 378.835L542.761 337.352C553.09 327.023 553.09 310.281 542.761 299.952C532.433 289.623 515.691 289.623 505.362 299.952L463.88 341.436C453.552 351.764 453.552 368.507 463.88 378.835C474.209 389.164 490.951 389.164 501.279 378.835Z" fill="var(--fill-0, #27BBC9)"/>
<path id="Vector_29" d="M118.367 0.52449H56.8382L31.8394 25.5239C21.511 35.8526 21.511 52.5951 31.8394 62.9238C42.1679 73.2525 58.9099 73.2525 69.2383 62.9238L110.721 21.4404C116.449 15.7122 118.992 8.00971 118.367 0.52449Z" fill="var(--fill-0, #27BBC9)"/>
<path id="Vector_30" d="M400.479 255.251L318.971 336.76C308.643 347.089 308.643 363.831 318.971 374.16C329.3 384.489 346.042 384.489 356.37 374.16L437.877 292.65C448.206 282.322 448.206 265.579 437.877 255.251C427.549 244.922 410.807 244.922 400.479 255.251Z" fill="var(--fill-0, #27BBC9)"/>
<path id="Vector_31" d="M305.245 88.695C294.917 78.3663 278.175 78.3663 267.846 88.695L180.146 176.397C169.818 186.726 169.818 203.468 180.146 213.797C190.475 224.126 207.217 224.126 217.545 213.797L305.245 126.095C315.573 115.766 315.573 99.0237 305.245 88.695Z" fill="var(--fill-0, #27BBC9)"/>
<path id="Vector_32" d="M211.922 69.8284L272.102 9.64313C274.784 6.96073 276.762 3.84376 278.051 0.520744H206.426L174.523 32.4247C164.195 42.7534 164.195 59.4959 174.523 69.8246C184.852 80.1533 201.594 80.1533 211.922 69.8246V69.8284Z" fill="var(--fill-0, #27BBC9)"/>
</g>
</g>
</svg>
