<svg preserveAspectRatio="none" width="100%" height="100%" overflow="visible" style="display: block;" viewBox="0 0 53.9664 26.22" fill="none" xmlns="http://www.w3.org/2000/svg">
<g id="Group">
<path id="Vector" d="M13.8164 0.18L13.9964 0.64L16.9864 1.89C16.9864 1.89 19.1864 2.77 17.6664 5.86C16.1464 8.96 9.56638 21.25 9.56638 21.25C9.56638 21.25 8.13638 23.29 6.86638 24.06C5.59638 24.83 3.19638 25.55 3.19638 25.55C3.19638 25.55 2.71638 25.62 2.82638 25.86C2.93638 26.1 2.73638 25.97 2.93638 26.1C3.13638 26.23 3.39638 26.19 3.39638 26.19H18.2364L18.4764 26.06L18.3464 25.69C18.3464 25.69 14.4864 24.26 15.3164 22.4C16.1464 20.54 19.7964 13.7 19.7964 13.7H24.1264L36.2264 22.79C36.2264 22.79 37.4764 23.84 36.9064 24.61C36.3364 25.38 35.6364 25.8 35.6364 25.8C35.6364 25.8 35.2664 25.87 35.4564 26.02C35.6464 26.17 36.0264 26.22 36.0264 26.22H53.9664V25.8C53.9664 25.8 48.2164 24.13 46.0864 22.84C43.9564 21.55 30.1264 11.99 30.1264 11.99L44.8364 2.31C44.8364 2.31 48.2664 0.73 49.7564 0.55C49.7564 0.55 50.2664 0.33 50.2364 0.24C50.2064 0.15 50.1264 0 50.1264 0H36.8164C36.8164 0 36.1164 0.11 36.3564 0.4C36.5964 0.69 38.2664 1.43 38.2664 1.43C38.2664 1.43 38.9264 2.07 38.4464 2.53C37.9664 2.99 25.7964 11.76 25.7964 11.76L20.5864 12.04L24.4064 4.64C24.4064 4.64 25.8364 2.29 27.3464 1.7C28.8564 1.11 30.0064 0.8 30.2264 0.62C30.4464 0.44 30.4464 0.14 30.4464 0.14L13.8264 0.18H13.8164Z" fill="var(--fill-0, #231815)"/>
<path id="Vector_2" d="M11.0064 0.18L11.1864 0.64L14.1764 1.89C14.1764 1.89 16.3764 2.77 14.8564 5.86C13.3364 8.96 6.75638 21.25 6.75638 21.25C6.75638 21.25 5.32638 23.29 4.05638 24.06C2.78638 24.83 0.386381 25.55 0.386381 25.55C0.386381 25.55 -0.0936187 25.62 0.0163813 25.86C0.126381 26.1 -0.0736187 25.97 0.126381 26.1C0.326381 26.23 0.586381 26.19 0.586381 26.19H15.4264L15.6664 26.06L15.5364 25.69C15.5364 25.69 11.6764 24.26 12.5064 22.4C13.3364 20.54 16.9864 13.7 16.9864 13.7H21.3164L33.4164 22.79C33.4164 22.79 34.6664 23.84 34.0964 24.61C33.5264 25.38 32.8264 25.8 32.8264 25.8C32.8264 25.8 32.4564 25.87 32.6464 26.02C32.8364 26.17 33.2164 26.22 33.2164 26.22H51.1564V25.8C51.1564 25.8 45.4064 24.13 43.2764 22.84C41.1464 21.55 27.3164 11.99 27.3164 11.99L42.0264 2.31C42.0264 2.31 45.4564 0.73 46.9464 0.55C46.9464 0.55 47.4564 0.33 47.4264 0.24C47.3964 0.15 47.3164 0 47.3164 0H34.0064C34.0064 0 33.3064 0.11 33.5464 0.4C33.7864 0.69 35.4564 1.43 35.4564 1.43C35.4564 1.43 36.1164 2.07 35.6364 2.53C35.1564 2.99 22.9864 11.76 22.9864 11.76L17.7764 12.04L21.5964 4.64C21.5964 4.64 23.0264 2.29 24.5364 1.7C26.0464 1.11 27.1964 0.8 27.4164 0.62C27.6364 0.44 27.6364 0.14 27.6364 0.14L11.0164 0.18H11.0064Z" fill="var(--fill-0, white)"/>
</g>
</svg>
