<svg preserveAspectRatio="none" width="100%" height="100%" overflow="visible" style="display: block;" viewBox="0 0 46.79 5.5" fill="none" xmlns="http://www.w3.org/2000/svg">
<g id="Group">
<path id="Vector" d="M1.58 3.37V4.68C1.58 4.98 1.77 5.09 1.98 5.09H2.1C2.23 5.09 2.3 5.2 2.3 5.29C2.3 5.38 2.23 5.49 2.1 5.49H0.2C0.0800001 5.49 0 5.4 0 5.29C0 5.09 0.19 5.09 0.31 5.09C0.51 5.09 0.69 5 0.69 4.7V0.92C0.69 0.67 0.57 0.530001 0.31 0.530001C0.19 0.530001 0 0.53 0 0.33C0 0.23 0.0800001 0.129999 0.2 0.129999H2.1C2.22 0.129999 2.3 0.23 2.3 0.33C2.3 0.42 2.24 0.530001 2.1 0.530001H1.98C1.72 0.530001 1.57 0.690001 1.57 0.940001V2.8L3.41 0.83C3.41 0.83 3.48 0.74 3.48 0.68C3.48 0.6 3.39 0.530001 3.27 0.530001H3.1C2.98 0.530001 2.9 0.43 2.9 0.33C2.9 0.23 2.98 0.129999 3.1 0.129999H4.88C5 0.129999 5.08 0.23 5.08 0.33C5.08 0.51 4.93 0.520001 4.73 0.530001C4.56 0.530001 4.18 0.58 3.78 1L2.78 2.07L4.33 4.63C4.54 4.97 4.7 5.08 4.99 5.09C5.16 5.09 5.27 5.14 5.27 5.29C5.27 5.41 5.18 5.49 5.07 5.49H3.18C3.05 5.49 2.97 5.4 2.97 5.29C2.97 5.14 3.06 5.09 3.28 5.09C3.37 5.09 3.44 5.06 3.44 4.94C3.44 4.86 3.42 4.8 3.35 4.69L2.17 2.76L1.58 3.36V3.37Z" fill="var(--fill-0, #231815)"/>
<path id="Vector_2" d="M7.28 3.71L6.96 4.63C6.94 4.7 6.91 4.8 6.91 4.88C6.91 5.06 6.98 5.07 7.11 5.08C7.3 5.1 7.43 5.12 7.43 5.29C7.43 5.38 7.36 5.49 7.23 5.49H5.98C5.86 5.49 5.78 5.4 5.78 5.29C5.78 5.09 5.96 5.09 6.03 5.09C6.08 5.09 6.4 5.08 6.53 4.68L8.02 0.27C8.06 0.15 8.11 0 8.46 0C8.63 0 8.81 0.0400005 8.89 0.27L10.41 4.69C10.53 5.05 10.76 5.07 10.89 5.08C11.04 5.09 11.19 5.12 11.19 5.29C11.19 5.39 11.11 5.49 10.99 5.49H9.14C9.01 5.49 8.94 5.39 8.94 5.29C8.94 5.19 9.02 5.09 9.14 5.09H9.28C9.43 5.09 9.5 5.03 9.5 4.91C9.5 4.84 9.47 4.76 9.44 4.68L9.11 3.71H7.28ZM8.99 3.31L8.21 0.99L7.41 3.31H8.98H8.99Z" fill="var(--fill-0, #231815)"/>
<path id="Vector_3" d="M15.77 3.9V1.15C15.77 0.84 15.65 0.579999 15.33 0.539999C15.18 0.519999 15.05 0.5 15.05 0.34C15.05 0.26 15.12 0.139999 15.25 0.139999H16.69C16.82 0.139999 16.9 0.24 16.9 0.34C16.9 0.51 16.75 0.519999 16.64 0.539999C16.21 0.589999 16.17 1.01 16.17 1.16V5.27C16.17 5.45 16.04 5.5 15.94 5.5C15.82 5.5 15.74 5.43 15.68 5.33L12.86 1.1V4.61C12.86 4.83 12.97 5.1 13.24 5.1H13.44C13.57 5.1 13.65 5.21 13.65 5.3C13.65 5.39 13.58 5.5 13.45 5.5H11.9C11.83 5.5 11.7 5.47 11.7 5.3C11.7 5.15 11.83 5.1 11.9 5.1H12.07C12.35 5.1 12.47 4.83 12.47 4.61V1.03C12.47 0.760001 12.24 0.549999 12.02 0.539999C11.85 0.539999 11.71 0.54 11.71 0.34C11.71 0.19 11.83 0.139999 11.91 0.139999H13.15C13.21 0.139999 13.28 0.14 13.35 0.24L15.79 3.9H15.77Z" fill="var(--fill-0, #231815)"/>
<path id="Vector_4" d="M19.69 2.53C19.94 2.53 20.25 2.35 20.28 1.94C20.29 1.72 20.34 1.64 20.48 1.64C20.57 1.64 20.68 1.71 20.68 1.84V3.64C20.68 3.76 20.59 3.84 20.48 3.84C20.36 3.84 20.28 3.76 20.28 3.64V3.49C20.28 3.19 20.07 2.92 19.69 2.92H19.04V4.7C19.04 5 19.26 5.08 19.48 5.08H20.2C20.95 5.08 21.29 4.62 21.43 4.25C21.54 3.96 21.59 3.87 21.7 3.87C21.85 3.87 21.9 3.96 21.9 4.14V5.25C21.9 5.41 21.81 5.47 21.67 5.47H17.66C17.53 5.47 17.46 5.38 17.46 5.27C17.46 5.09 17.61 5.07 17.75 5.07C17.92 5.07 18.14 4.98 18.14 4.69V0.9C18.14 0.66 18.01 0.53 17.78 0.52C17.61 0.52 17.45 0.5 17.45 0.32C17.45 0.22 17.53 0.119999 17.66 0.119999H21.54C21.69 0.119999 21.76 0.2 21.76 0.34V1.33C21.76 1.5 21.7 1.6 21.58 1.6C21.48 1.6 21.45 1.56 21.29 1.21C21.07 0.719999 20.68 0.51 20.3 0.51H19.47C19.09 0.51 19.03 0.689999 19.03 0.869999V2.5H19.68L19.69 2.53Z" fill="var(--fill-0, #231815)"/>
<path id="Vector_5" d="M25.43 2.84L26.44 0.959999C26.48 0.889999 26.52 0.769999 26.52 0.709999C26.52 0.599999 26.41 0.52 26.19 0.52H25.99C25.87 0.52 25.79 0.43 25.79 0.32C25.79 0.23 25.86 0.119999 25.99 0.119999H27.57C27.7 0.119999 27.77 0.22 27.77 0.32C27.77 0.44 27.71 0.49 27.49 0.52C27.2 0.56 26.98 0.740001 26.83 1.03L25.62 3.29V4.67C25.62 4.99 25.8 5.07 26 5.07H26.22C26.37 5.07 26.43 5.19 26.43 5.27C26.43 5.36 26.36 5.47 26.23 5.47H24.09C23.96 5.47 23.89 5.37 23.89 5.27C23.89 5.18 23.96 5.07 24.1 5.07H24.32C24.59 5.07 24.7 4.92 24.7 4.67V3.36L23.33 0.9C23.22 0.7 23.03 0.53 22.81 0.51C22.65 0.5 22.56 0.449999 22.56 0.309999C22.56 0.209999 22.64 0.110001 22.77 0.110001H24.62C24.75 0.110001 24.82 0.209999 24.82 0.309999C24.82 0.439999 24.75 0.51 24.54 0.51C24.37 0.51 24.26 0.58 24.26 0.66C24.26 0.73 24.31 0.86 24.35 0.92L25.42 2.82L25.43 2.84Z" fill="var(--fill-0, #231815)"/>
<path id="Vector_6" d="M29.89 3.71L29.57 4.63C29.55 4.7 29.52 4.8 29.52 4.88C29.52 5.06 29.59 5.07 29.72 5.08C29.91 5.1 30.04 5.12 30.04 5.29C30.04 5.38 29.97 5.49 29.84 5.49H28.59C28.47 5.49 28.39 5.4 28.39 5.29C28.39 5.09 28.57 5.09 28.64 5.09C28.69 5.09 29.01 5.08 29.14 4.68L30.63 0.27C30.67 0.15 30.72 0 31.07 0C31.24 0 31.42 0.0400005 31.5 0.27L33.02 4.69C33.14 5.05 33.37 5.07 33.5 5.08C33.65 5.09 33.8 5.12 33.8 5.29C33.8 5.39 33.72 5.49 33.6 5.49H31.75C31.62 5.49 31.55 5.39 31.55 5.29C31.55 5.19 31.63 5.09 31.75 5.09H31.89C32.04 5.09 32.11 5.03 32.11 4.91C32.11 4.84 32.08 4.76 32.05 4.68L31.72 3.71H29.89ZM31.6 3.31L30.82 0.99L30.02 3.31H31.59H31.6Z" fill="var(--fill-0, #231815)"/>
<path id="Vector_7" d="M37.57 5.29C37.54 5.38 37.49 5.49 37.32 5.49C37.18 5.49 37.12 5.39 37.08 5.29L35.49 1.22V4.69C35.49 4.91 35.59 5.07 35.82 5.08C35.98 5.09 36.13 5.1 36.13 5.28C36.13 5.37 36.07 5.48 35.93 5.48H34.61C34.49 5.48 34.41 5.39 34.41 5.28C34.41 5.08 34.6 5.08 34.69 5.08C34.98 5.08 35.08 4.91 35.08 4.69V0.950001C35.08 0.800001 35.02 0.55 34.71 0.52C34.54 0.51 34.41 0.5 34.41 0.32C34.41 0.22 34.48 0.119999 34.61 0.119999H35.84C35.9 0.119999 36.01 0.12 36.06 0.27L37.56 4.09L39.01 0.289999C39.05 0.169999 39.1 0.129999 39.25 0.129999H40.55C40.68 0.129999 40.75 0.24 40.75 0.33C40.75 0.53 40.56 0.530001 40.43 0.530001C40.19 0.530001 40.05 0.68 40.05 0.91V4.69C40.05 4.94 40.18 5.08 40.43 5.08C40.55 5.08 40.74 5.08 40.74 5.28C40.74 5.37 40.66 5.48 40.54 5.48H38.68C38.56 5.48 38.48 5.39 38.48 5.28C38.48 5.08 38.67 5.08 38.77 5.08C39.05 5.08 39.15 4.92 39.15 4.69V1.05L37.56 5.28L37.57 5.29Z" fill="var(--fill-0, #231815)"/>
<path id="Vector_8" d="M42.88 3.71L42.56 4.63C42.54 4.7 42.51 4.8 42.51 4.88C42.51 5.06 42.58 5.07 42.71 5.08C42.9 5.1 43.03 5.12 43.03 5.29C43.03 5.38 42.96 5.49 42.83 5.49H41.58C41.46 5.49 41.38 5.4 41.38 5.29C41.38 5.09 41.56 5.09 41.63 5.09C41.68 5.09 42 5.08 42.13 4.68L43.62 0.27C43.66 0.15 43.71 0 44.06 0C44.23 0 44.41 0.0400005 44.49 0.27L46.01 4.69C46.13 5.05 46.36 5.07 46.49 5.08C46.64 5.09 46.79 5.12 46.79 5.29C46.79 5.39 46.71 5.49 46.59 5.49H44.74C44.61 5.49 44.54 5.39 44.54 5.29C44.54 5.19 44.62 5.09 44.74 5.09H44.88C45.03 5.09 45.1 5.03 45.1 4.91C45.1 4.84 45.07 4.76 45.04 4.68L44.71 3.71H42.88ZM44.58 3.31L43.8 0.99L43 3.31H44.57H44.58Z" fill="var(--fill-0, #231815)"/>
</g>
</svg>
