<svg preserveAspectRatio="none" width="100%" height="100%" overflow="visible" style="display: block;" viewBox="0 0 17.1197 18.3761" fill="none" xmlns="http://www.w3.org/2000/svg">
<g id="Group">
<path id="Vector" d="M12.6706 15.9147C12.6706 15.9147 12.7606 15.9447 12.8006 15.9447C12.9306 15.9447 13.0606 15.8847 13.1506 15.7647C15.1106 13.0547 15.6606 10.7147 15.6806 10.6147C15.7406 10.3347 15.6006 10.0347 15.3606 9.95473C15.1206 9.87473 14.8706 10.0347 14.8106 10.3147C14.8106 10.3447 14.3506 12.2647 12.8106 14.5647C11.4306 12.4947 10.3506 10.6047 10.3406 10.5847C10.2006 10.3347 9.92059 10.2647 9.71059 10.4247C9.50059 10.5847 9.45058 10.9147 9.59058 11.1647C9.60058 11.1847 10.9006 13.4547 12.4606 15.7447C12.5206 15.8247 12.5906 15.8847 12.6806 15.9247L12.6706 15.9147Z" fill="var(--fill-0, #2A424B)"/>
<g id="Group_2">
<path id="Vector_2" d="M0.000587097 9.17473C0.0505871 11.2047 3.27059 12.7247 7.21059 12.5847C11.1406 12.4347 14.2906 10.6747 14.2406 8.64473C14.1906 6.61473 10.9706 5.09473 7.03059 5.23473C3.10059 5.38473 -0.0494129 7.14473 0.000587097 9.17473Z" fill="var(--fill-0, #ED9000)"/>
<path id="Vector_3" d="M0.650587 6.77473C0.340587 9.00473 3.74058 11.2147 8.25058 11.7047C12.7606 12.1947 16.6706 10.7747 16.9806 8.54473C16.9806 8.54473 17.0606 7.98473 17.0606 7.93473C17.6006 4.06473 14.3806 0.53473 9.87059 0.0547298C5.36059 -0.42527 1.27057 2.30473 0.730574 6.17473C0.730574 6.21473 0.650587 6.78473 0.650587 6.78473V6.77473Z" fill="var(--fill-0, #FCAF2B)"/>
</g>
<path id="Vector_4" d="M12.3806 15.0947C12.3806 15.0947 10.6706 18.1147 6.72058 18.3447C8.51058 18.5647 12.0706 17.6347 13.3606 15.3747L12.3806 15.0947Z" fill="var(--fill-0, #2A424B)"/>
</g>
</svg>
