<svg preserveAspectRatio="none" width="100%" height="100%" overflow="visible" style="display: block;" viewBox="0 0 112.305 85.7825" fill="none" xmlns="http://www.w3.org/2000/svg">
<g id="Group">
<g id="Group_2">
<g id="Group_3">
<path id="Vector" d="M92.9375 44.96L111.367 34.32C112.617 33.6 112.617 31.8 111.367 31.08L92.9375 20.44C91.7775 19.77 90.3575 19.77 89.1975 20.44L70.7675 31.08C69.5175 31.8 69.5175 33.6 70.7675 34.32L89.1975 44.96C90.3575 45.63 91.7775 45.63 92.9375 44.96Z" fill="var(--fill-0, #ED5053)"/>
<g id="Group_4">
<path id="Vector_2" d="M102.908 24.47C100.918 27 96.3675 28.77 91.0675 28.77C85.7675 28.77 81.2175 27 79.2275 24.47L76.9175 30.78C76.9175 35.11 83.2575 38.62 91.0675 38.62C98.8775 38.62 105.217 35.11 105.217 30.78L102.908 24.47Z" fill="var(--fill-0, #F58A8E)"/>
<path id="Vector_3" d="M91.0675 28.76C96.3675 28.76 100.918 26.99 102.908 24.46L98.6875 12.94C97.3275 14.51 94.4275 15.6 91.0675 15.6C87.7075 15.6 84.8075 14.51 83.4475 12.94L79.2275 24.46C81.2175 26.99 85.7675 28.76 91.0675 28.76Z" fill="var(--fill-0, #ED5053)"/>
<path id="Vector_4" d="M91.0675 0C89.0775 0 87.4575 0.89 87.4575 2L83.4475 12.95C84.8075 14.52 87.7075 15.61 91.0675 15.61C94.4275 15.61 97.3275 14.52 98.6875 12.95L94.6775 2C94.6775 0.9 93.0575 0 91.0675 0Z" fill="var(--fill-0, #F58A8E)"/>
</g>
</g>
<path id="Vector_5" d="M91.0175 10.8C86.4775 10.8 82.9275 8.62 82.9275 5.83C82.9275 3.04 86.4775 0.860001 91.0175 0.860001C95.5575 0.860001 99.1075 3.04 99.1075 5.83C99.1075 8.62 95.5575 10.8 91.0175 10.8ZM91.0175 3.05C87.6375 3.05 85.1175 4.52 85.1175 5.83C85.1175 7.14 87.6375 8.61 91.0175 8.61C94.3975 8.61 96.9175 7.14 96.9175 5.83C96.9175 4.52 94.3975 3.05 91.0175 3.05Z" fill="var(--fill-0, #2A424B)"/>
<path id="Vector_6" d="M95.4375 4.07L94.6775 2C94.6775 0.9 93.0575 0 91.0675 0C89.0775 0 87.4575 0.89 87.4575 2L86.6975 4.07C87.9775 4.5 89.4675 4.75 91.0675 4.75C92.6675 4.75 94.1575 4.5 95.4375 4.07Z" fill="var(--fill-0, #F58A8E)"/>
</g>
<path id="Vector_7" d="M87.7875 10.76L27.4475 45.6C27.6475 45.48 27.7675 45.24 27.7675 44.89C27.7675 44.19 27.2775 43.33 26.6575 42.97C26.3475 42.79 26.0675 42.78 25.8675 42.89L86.2075 8.04999C86.4075 7.92999 86.6875 7.95 86.9975 8.13C87.6075 8.48 88.1075 9.33999 88.1075 10.05C88.1075 10.4 87.9875 10.65 87.7875 10.76Z" fill="var(--fill-0, #2A424B)"/>
<g id="Group_5">
<g id="Group_6">
<path id="Vector_8" d="M23.1075 85.28L41.5375 74.64C42.7875 73.92 42.7875 72.12 41.5375 71.4L23.1075 60.76C21.9475 60.09 20.5275 60.09 19.3675 60.76L0.9375 71.4C-0.3125 72.12 -0.3125 73.92 0.9375 74.64L19.3675 85.28C20.5275 85.95 21.9475 85.95 23.1075 85.28Z" fill="var(--fill-0, #ED5053)"/>
<g id="Group_7">
<path id="Vector_9" d="M33.0775 64.78C31.0875 67.31 26.5375 69.08 21.2375 69.08C15.9375 69.08 11.3875 67.31 9.39749 64.78L7.08749 71.09C7.08749 75.42 13.4275 78.93 21.2375 78.93C29.0475 78.93 35.3875 75.42 35.3875 71.09L33.0775 64.78Z" fill="var(--fill-0, #F58A8E)"/>
<path id="Vector_10" d="M21.2375 69.08C26.5375 69.08 31.0875 67.31 33.0775 64.78L28.8575 53.26C27.4975 54.83 24.5975 55.92 21.2375 55.92C17.8775 55.92 14.9775 54.83 13.6175 53.26L9.39749 64.78C11.3875 67.31 15.9375 69.08 21.2375 69.08Z" fill="var(--fill-0, #ED5053)"/>
<path id="Vector_11" d="M21.2375 40.32C19.2475 40.32 17.6275 41.22 17.6275 42.32L13.6175 53.27C14.9775 54.84 17.8775 55.93 21.2375 55.93C24.5975 55.93 27.4975 54.84 28.8575 53.27L24.8475 42.32C24.8475 41.22 23.2275 40.32 21.2375 40.32Z" fill="var(--fill-0, #F58A8E)"/>
</g>
</g>
<path id="Vector_12" d="M21.1875 51.12C16.6475 51.12 13.0975 48.94 13.0975 46.15C13.0975 43.36 16.6475 41.18 21.1875 41.18C25.7275 41.18 29.2775 43.36 29.2775 46.15C29.2775 48.94 25.7275 51.12 21.1875 51.12ZM21.1875 43.37C17.8075 43.37 15.2875 44.84 15.2875 46.15C15.2875 47.46 17.8075 48.93 21.1875 48.93C24.5675 48.93 27.0875 47.46 27.0875 46.15C27.0875 44.84 24.5675 43.37 21.1875 43.37Z" fill="var(--fill-0, #2A424B)"/>
<path id="Vector_13" d="M25.6075 44.39L24.8475 42.32C24.8475 41.22 23.2275 40.32 21.2375 40.32C19.2475 40.32 17.6275 41.22 17.6275 42.32L16.8675 44.39C18.1475 44.82 19.6375 45.07 21.2375 45.07C22.8375 45.07 24.3275 44.82 25.6075 44.39Z" fill="var(--fill-0, #F58A8E)"/>
</g>
</g>
</svg>
