<svg preserveAspectRatio="none" width="100%" height="100%" overflow="visible" style="display: block;" viewBox="0 0 418.4 271.355" fill="none" xmlns="http://www.w3.org/2000/svg">
<g id="Group">
<path id="Vector" d="M227.64 246.512L409.18 141.693C421.47 134.593 421.47 116.853 409.18 109.753L227.64 4.9425C216.23 -1.6475 202.17 -1.6475 190.76 4.9425L9.2201 109.763C-3.0699 116.863 -3.0699 134.602 9.2201 141.702L190.76 246.523C202.17 253.113 216.23 253.113 227.64 246.523V246.512Z" fill="var(--fill-0, #E3F0F7)"/>
<path id="Vector_2" d="M418.4 125.663C418.42 131.893 415.35 138.133 409.18 141.693L227.64 246.503C216.23 253.093 202.17 253.093 190.76 246.503L9.2201 141.693C3.0501 138.133 -0.0199029 131.893 9.7087e-05 125.663V145.652C9.7087e-05 151.862 3.0801 158.063 9.2201 161.603L190.76 266.413C202.17 273.003 216.23 273.003 227.64 266.413L409.18 161.592C415.32 158.042 418.39 151.843 418.4 145.643V125.653V125.663Z" fill="var(--fill-0, #D2E3ED)"/>
</g>
</svg>
