<svg preserveAspectRatio="none" width="100%" height="100%" overflow="visible" style="display: block;" viewBox="0 0 646 69" fill="none" xmlns="http://www.w3.org/2000/svg">
<g id="Group 3042">
<path id="&#226;&#128;&#157;" d="M39.6313 0L43 6.46994C39.7634 8.28962 37.3525 10.3452 35.7673 12.6366C34.116 14.928 33.2903 17.7587 33.2903 21.1284L34.083 30.3279L28.7327 23.1503C29.5253 22.4763 30.4171 21.9035 31.4078 21.4317C32.3326 21.0273 33.3233 20.8251 34.3802 20.8251C36.4939 20.8251 38.3433 21.5328 39.9286 22.9481C41.5138 24.3634 42.3065 26.2505 42.3065 28.6093C42.3065 31.2377 41.5799 33.2933 40.1267 34.776C38.6075 36.2587 36.692 37 34.3802 37C31.2097 37 28.8318 35.8206 27.2465 33.4618C25.5952 31.1029 24.7696 27.7668 24.7696 23.4536C24.7696 18.2641 26.0246 13.6812 28.5346 9.70492C30.9785 5.79599 34.6774 2.56102 39.6313 0ZM14.8617 0L18.3295 6.46994C15.0269 8.28962 12.5829 10.3452 10.9977 12.6366C9.34639 14.928 8.52074 17.7587 8.52074 21.1284L9.31336 30.3279L3.96313 23.1503C4.75576 22.4763 5.64746 21.9035 6.63825 21.4317C7.56298 21.0273 8.55376 20.8251 9.6106 20.8251C11.7243 20.8251 13.5737 21.5328 15.159 22.9481C16.7442 24.3634 17.5369 26.2505 17.5369 28.6093C17.5369 31.2377 16.8103 33.2933 15.3571 34.776C13.8379 36.2587 11.9224 37 9.6106 37C6.44009 37 4.06221 35.8206 2.47696 33.4618C0.82565 31.1029 0 27.7668 0 23.4536C0 18.2641 1.25499 13.6812 3.76497 9.70492C6.20891 5.79599 9.90783 2.56102 14.8617 0Z" fill="var(--fill-0, #FD5416)" fill-opacity="0.8"/>
<path id="&#226;&#128;&#157;_2" d="M606.369 69L603 62.5301C606.237 60.7104 608.647 58.6548 610.233 56.3634C611.884 54.072 612.71 51.2413 612.71 47.8716L611.917 38.6721L617.267 45.8497C616.475 46.5237 615.583 47.0965 614.592 47.5683C613.667 47.9727 612.677 48.1749 611.62 48.1749C609.506 48.1749 607.657 47.4672 606.071 46.0519C604.486 44.6366 603.694 42.7495 603.694 40.3907C603.694 37.7623 604.42 35.7067 605.873 34.224C607.392 32.7413 609.308 32 611.62 32C614.79 32 617.168 33.1794 618.753 35.5383C620.405 37.8971 621.23 41.2332 621.23 45.5464C621.23 50.7359 619.975 55.3188 617.465 59.2951C615.022 63.204 611.323 66.439 606.369 69ZM631.138 69L627.671 62.5301C630.973 60.7104 633.417 58.6548 635.002 56.3634C636.654 54.072 637.479 51.2413 637.479 47.8716L636.687 38.6721L642.037 45.8497C641.244 46.5237 640.353 47.0965 639.362 47.5683C638.437 47.9727 637.446 48.1749 636.389 48.1749C634.276 48.1749 632.426 47.4672 630.841 46.0519C629.256 44.6366 628.463 42.7495 628.463 40.3907C628.463 37.7623 629.19 35.7067 630.643 34.224C632.162 32.7413 634.078 32 636.389 32C639.56 32 641.938 33.1794 643.523 35.5383C645.174 37.8971 646 41.2332 646 45.5464C646 50.7359 644.745 55.3188 642.235 59.2951C639.791 63.204 636.092 66.439 631.138 69Z" fill="var(--fill-0, #FD5416)" fill-opacity="0.8"/>
</g>
</svg>
