<svg preserveAspectRatio="none" width="100%" height="100%" overflow="visible" style="display: block;" viewBox="0 0 112.305 85.7825" fill="none" xmlns="http://www.w3.org/2000/svg">
<g id="Group">
<g id="Group_2">
<g id="Group_3">
<path id="Vector" d="M19.3675 44.96L0.9375 34.32C-0.3125 33.6 -0.3125 31.8 0.9375 31.08L19.3675 20.44C20.5275 19.77 21.9475 19.77 23.1075 20.44L41.5375 31.08C42.7875 31.8 42.7875 33.6 41.5375 34.32L23.1075 44.96C21.9475 45.63 20.5275 45.63 19.3675 44.96Z" fill="var(--fill-0, #ED5053)"/>
<g id="Group_4">
<path id="Vector_2" d="M9.39749 24.46C11.3875 26.99 15.9375 28.76 21.2375 28.76C26.5375 28.76 31.0875 26.99 33.0775 24.46L35.3875 30.77C35.3875 35.1 29.0475 38.61 21.2375 38.61C13.4275 38.61 7.08749 35.1 7.08749 30.77L9.39749 24.46Z" fill="var(--fill-0, #F58A8E)"/>
<path id="Vector_3" d="M21.2375 28.76C15.9375 28.76 11.3875 26.99 9.39749 24.46L13.6175 12.94C14.9775 14.51 17.8775 15.6 21.2375 15.6C24.5975 15.6 27.4975 14.51 28.8575 12.94L33.0775 24.46C31.0875 26.99 26.5375 28.76 21.2375 28.76Z" fill="var(--fill-0, #ED5053)"/>
<path id="Vector_4" d="M21.2375 0C23.2275 0 24.8475 0.89 24.8475 2L28.8575 12.95C27.4975 14.52 24.5975 15.61 21.2375 15.61C17.8775 15.61 14.9775 14.52 13.6175 12.95L17.6275 2C17.6275 0.9 19.2475 0 21.2375 0Z" fill="var(--fill-0, #F58A8E)"/>
</g>
</g>
<path id="Vector_5" d="M13.1975 5.83C13.1975 3.04 16.7475 0.860001 21.2875 0.860001C25.8275 0.860001 29.3775 3.04 29.3775 5.83C29.3775 8.62 25.8275 10.8 21.2875 10.8C16.7475 10.8 13.1975 8.62 13.1975 5.83ZM15.3875 5.83C15.3875 7.14 17.9075 8.61 21.2875 8.61C24.6675 8.61 27.1875 7.14 27.1875 5.83C27.1875 4.52 24.6675 3.05 21.2875 3.05C17.9075 3.05 15.3875 4.52 15.3875 5.83Z" fill="var(--fill-0, #2A424B)"/>
<path id="Vector_6" d="M16.8675 4.07L17.6275 2C17.6275 0.9 19.2475 0 21.2375 0C23.2275 0 24.8475 0.89 24.8475 2L25.6075 4.07C24.3275 4.5 22.8375 4.75 21.2375 4.75C19.6375 4.75 18.1475 4.5 16.8675 4.07Z" fill="var(--fill-0, #F58A8E)"/>
</g>
<path id="Vector_7" d="M24.5175 10.76L84.8575 45.6C84.6575 45.48 84.5375 45.24 84.5375 44.89C84.5375 44.19 85.0275 43.33 85.6475 42.97C85.9575 42.79 86.2375 42.78 86.4375 42.89L26.0975 8.05C25.8975 7.93 25.6175 7.95 25.3075 8.13C24.6975 8.48 24.1975 9.34 24.1975 10.05C24.1975 10.4 24.3175 10.65 24.5175 10.76Z" fill="var(--fill-0, #2A424B)"/>
<g id="Group_5">
<g id="Group_6">
<path id="Vector_8" d="M89.1975 85.28L70.7675 74.64C69.5175 73.92 69.5175 72.12 70.7675 71.4L89.1975 60.76C90.3575 60.09 91.7775 60.09 92.9375 60.76L111.368 71.4C112.618 72.12 112.618 73.92 111.368 74.64L92.9375 85.28C91.7775 85.95 90.3575 85.95 89.1975 85.28Z" fill="var(--fill-0, #ED5053)"/>
<g id="Group_7">
<path id="Vector_9" d="M79.2275 64.78C81.2175 67.31 85.7675 69.08 91.0675 69.08C96.3675 69.08 100.917 67.31 102.907 64.78L105.217 71.09C105.217 75.42 98.8775 78.93 91.0675 78.93C83.2575 78.93 76.9175 75.42 76.9175 71.09L79.2275 64.78Z" fill="var(--fill-0, #F58A8E)"/>
<path id="Vector_10" d="M91.0675 69.08C85.7675 69.08 81.2175 67.31 79.2275 64.78L83.4475 53.26C84.8075 54.83 87.7075 55.92 91.0675 55.92C94.4275 55.92 97.3275 54.83 98.6875 53.26L102.907 64.78C100.917 67.31 96.3675 69.08 91.0675 69.08Z" fill="var(--fill-0, #ED5053)"/>
<path id="Vector_11" d="M91.0675 40.32C93.0575 40.32 94.6775 41.21 94.6775 42.32L98.6875 53.27C97.3275 54.84 94.4275 55.93 91.0675 55.93C87.7075 55.93 84.8075 54.84 83.4475 53.27L87.4575 42.32C87.4575 41.22 89.0775 40.32 91.0675 40.32Z" fill="var(--fill-0, #F58A8E)"/>
</g>
</g>
<path id="Vector_12" d="M83.0375 46.15C83.0375 43.36 86.5875 41.18 91.1275 41.18C95.6675 41.18 99.2175 43.36 99.2175 46.15C99.2175 48.94 95.6675 51.12 91.1275 51.12C86.5875 51.12 83.0375 48.94 83.0375 46.15ZM85.2175 46.15C85.2175 47.46 87.7375 48.93 91.1175 48.93C94.4975 48.93 97.0175 47.46 97.0175 46.15C97.0175 44.84 94.4975 43.37 91.1175 43.37C87.7375 43.37 85.2175 44.84 85.2175 46.15Z" fill="var(--fill-0, #2A424B)"/>
<path id="Vector_13" d="M86.6975 44.39L87.4575 42.32C87.4575 41.22 89.0775 40.32 91.0675 40.32C93.0575 40.32 94.6775 41.21 94.6775 42.32L95.4375 44.39C94.1575 44.82 92.6675 45.07 91.0675 45.07C89.4675 45.07 87.9775 44.82 86.6975 44.39Z" fill="var(--fill-0, #F58A8E)"/>
</g>
</g>
</svg>
