<svg preserveAspectRatio="none" width="100%" height="100%" overflow="visible" style="display: block;" viewBox="0 0 49.5075 125.844" fill="none" xmlns="http://www.w3.org/2000/svg">
<g id="Group">
<g id="Group_2">
<g id="Group_3">
<path id="Vector" d="M48.68 16.3639C48.55 16.5639 48.38 16.5639 48.21 16.6839C48.02 16.8139 47.97 17.0139 47.85 17.2039C47.6 17.6139 47.22 17.9539 46.75 18.0539C46.34 18.1439 45.9 18.0939 45.48 18.1539C45.37 18.1639 45.25 18.1739 45.15 18.1239C45.05 18.0739 44.98 17.9839 44.92 17.8939C44.63 17.4739 44.4 16.9339 44.63 16.4839C44.72 16.2939 44.89 16.1539 45.04 16.0139C45.4 15.6939 45.76 15.3739 46.13 15.0539C46.31 14.8939 46.5 14.7339 46.72 14.6339C47.13 14.4539 47.6 14.5139 48.03 14.6239C48.25 14.6839 48.46 14.7539 48.64 14.8939C49.01 15.1939 48.93 15.9939 48.69 16.3639H48.68Z" fill="var(--fill-0, #617F88)"/>
<path id="Vector_2" d="M46.75 8.43394C46.83 8.29394 46.9 8.15394 46.97 8.00394C47.11 7.91394 47.31 7.98393 47.4 8.12393C47.49 8.26393 47.5 8.44393 47.48 8.60393C47.43 9.17393 47.13 9.72394 46.98 10.2739C46.92 10.4939 46.88 10.7239 46.79 10.9339C46.73 11.0839 46.64 11.2239 46.57 11.3739C46.38 11.7739 46.32 12.2139 46.27 12.6439C46.27 12.5939 46.76 13.0539 46.78 13.2339C46.8 13.4439 46.78 13.9039 46.57 13.9939C45.68 14.3939 44.88 14.8939 43.86 14.8139C43.81 14.8139 43.76 14.8039 43.73 14.7639C43.71 14.7339 43.71 14.6939 43.72 14.6539C43.78 14.0539 44.08 13.5239 44.38 13.0239C44.67 12.5439 44.81 12.0939 45.02 11.5939C45.48 10.5039 46.19 9.47393 46.76 8.40393L46.75 8.43394Z" fill="var(--fill-0, #617F88)"/>
<path id="Vector_3" d="M47.98 12.3039C48.09 12.4239 48.13 12.6239 48.06 12.9139C47.81 13.9639 47.57 14.7439 46.75 15.4739C46.65 15.5639 46.55 15.6439 46.42 15.6839C46.29 15.7239 46.14 15.6839 46.07 15.5839C45.98 15.4539 46.04 15.2739 46.11 15.1239C46.28 14.7739 46.49 14.4539 46.65 14.1139C46.86 13.6739 46.89 13.5739 46.43 13.5139C46.25 13.4839 46.18 13.2639 46.17 13.0839C46.16 12.7939 46.22 12.4939 46.33 12.2239C46.34 12.1939 46.36 12.1639 46.39 12.1439C46.41 12.1339 46.43 12.1339 46.46 12.1339C46.92 12.1339 47.7 11.9639 47.99 12.3039H47.98Z" fill="var(--fill-0, #617F88)"/>
<path id="Vector_4" d="M48.91 13.0239C49 13.1639 49.01 13.3539 48.91 13.6439C48.53 14.6539 48.18 15.3939 47.28 16.0139C47.17 16.0839 47.06 16.1639 46.93 16.1839C46.8 16.2039 46.65 16.1539 46.59 16.0339C46.52 15.8939 46.59 15.7239 46.69 15.5839C46.9 15.2639 47.15 14.9739 47.36 14.6539C47.63 14.2439 47.67 14.1539 47.22 14.0239C47.04 13.9739 47 13.7439 47.02 13.5539C47.05 13.2639 47.14 12.9739 47.29 12.7239C47.31 12.6939 47.33 12.6639 47.36 12.6539C47.38 12.6539 47.41 12.6539 47.43 12.6539C47.89 12.7139 48.68 12.6539 48.92 13.0239H48.91Z" fill="var(--fill-0, #617F88)"/>
<path id="Vector_5" d="M49.46 13.9139C49.53 14.0439 49.53 14.2239 49.41 14.4739C48.99 15.3639 48.62 16.0039 47.75 16.4839C47.65 16.5439 47.54 16.6039 47.42 16.6039C47.3 16.6039 47.17 16.5539 47.12 16.4439C47.06 16.3139 47.15 16.1639 47.24 16.0439C47.45 15.7739 47.7 15.5239 47.92 15.2539C48.19 14.9039 48.24 14.8239 47.84 14.6739C47.68 14.6139 47.66 14.4039 47.69 14.2339C47.74 13.9739 47.84 13.7239 48 13.5039C48.02 13.4839 48.04 13.4539 48.06 13.4439C48.08 13.4439 48.1 13.4439 48.12 13.4439C48.53 13.5239 49.25 13.5339 49.44 13.8939L49.46 13.9139Z" fill="var(--fill-0, #617F88)"/>
<path id="Vector_6" d="M43.63 14.7739C43.63 14.7739 43.64 14.7339 43.65 14.7139C43.82 14.2939 44.05 13.8839 44.26 13.4739C44.3 13.3939 44.35 13.3139 44.43 13.2639C44.48 13.2339 44.54 13.2239 44.59 13.2139C45.02 13.1339 45.46 12.9939 45.89 12.9639C46.28 12.9339 46.65 13.0339 47.03 13.0339C47.61 13.1539 48.15 13.3339 48.74 13.3239C48.93 13.3239 49.15 13.3239 49.27 13.4639C49.41 13.6439 49.27 13.9039 49.1 14.0539C48.5 14.5439 47.78 14.2039 47.1 14.3039C47.04 14.3039 46.98 14.3239 46.93 14.3639C46.87 14.4039 46.83 14.4639 46.8 14.5139C46.65 14.7439 46.49 14.9639 46.65 15.2139C46.79 15.4339 46.95 15.5839 47.02 15.8539C47.14 16.3439 47.04 16.8739 46.96 17.3639C46.8 18.3039 46.42 19.1839 46 20.0339C45.98 20.0739 45.96 20.1039 45.93 20.1239C45.89 20.1339 45.86 20.1239 45.82 20.1139C44.91 19.7639 44.06 19.2739 43.3 18.6539C43.56 18.3739 44.18 17.6439 44.11 17.2239C44.08 17.0139 43.81 16.7439 43.72 16.5239C43.63 16.2739 43.57 16.0139 43.55 15.7539C43.52 15.4139 43.52 15.1039 43.63 14.7839V14.7739Z" fill="var(--fill-0, #617F88)"/>
</g>
<path id="Vector_7" d="M46.99 20.9539C46.99 20.9539 43.44 28.5639 39.61 34.5939C38.67 36.0639 36.78 36.6039 35.21 35.8339C33.84 35.1539 32.19 34.3139 30.79 33.5539C24.64 30.2339 23.42 28.1339 23.42 28.1339C23.42 28.1339 21.03 26.1539 19.42 23.6039C18.22 21.7139 18.68 20.5839 20.04 20.2639C22.26 19.7439 23.96 18.9639 28.22 22.7739C30.86 25.1339 35.56 29.2239 35.56 29.2239L42.73 17.9139C42.73 17.9139 46.6 18.5339 46.99 20.9639V20.9539Z" fill="var(--fill-0, #91B1B3)"/>
<path id="Vector_8" d="M4.22 58.0839L4.98 47.3339L2.63 26.0539C2.32 24.2139 3.06 22.3539 5.06 21.4439C9.66 19.3639 15.04 16.7739 23.73 20.1839C24.92 20.6539 25.36 22.0839 25.78 23.2939C26.27 24.7439 26.51 26.2939 26.46 27.8339L26.36 30.4739C26.32 35.5039 26.27 40.5339 26.23 45.5639C26.2 48.7539 26.04 51.8939 25.82 55.0739C25.72 56.4739 25.79 58.6339 25.79 58.6339C25.79 58.6339 23.18 60.9639 15.43 60.9239C6.99 60.8839 4.22 58.0839 4.22 58.0839Z" fill="var(--fill-0, #91B1B3)"/>
<path id="Vector_9" d="M3.85 115.384L2.9 118.074L3.18 121.694C3.18 121.694 4.73 122.804 6.5 122.794C7.6 123.684 9.81 125.744 14.29 125.844C15.26 125.864 16.93 124.954 16.2 123.964C15.76 123.354 11.08 120.684 8.75 115.304C6.24 115.054 3.85 115.394 3.85 115.394V115.384Z" fill="var(--fill-0, #2A424B)"/>
<path id="Vector_10" d="M15.99 108.774L15.24 111.534L15.79 115.114C15.79 115.114 17.42 116.104 19.18 115.944C20.34 116.744 22.7 118.624 27.17 118.354C28.14 118.294 29.73 117.254 28.94 116.324C28.45 115.754 23.59 113.464 20.87 108.284C18.35 108.244 15.99 108.774 15.99 108.774Z" fill="var(--fill-0, #2A424B)"/>
<path id="Vector_11" d="M17.96 17.5339C16.91 16.4139 12.83 15.8939 10.9 17.9339C10.76 18.9339 10.56 19.5739 10.56 19.5739L14.09 20.8439L17.88 20.3139C17.88 20.3139 18.06 18.3139 17.97 17.5439L17.96 17.5339Z" fill="var(--fill-0, #BFD4D5)"/>
<path id="Vector_12" d="M14.49 14.1139C12.97 14.1139 12.16 14.9639 12.16 15.7039L11.39 20.6639C11.46 21.5239 14.59 20.5939 16.32 20.5939C18.05 20.5939 17.73 21.5239 17.66 20.6639L16.91 15.4839C16.85 14.7339 16.01 14.1139 14.49 14.1139Z" fill="var(--fill-0, #F9C3C0)"/>
<path id="Vector_13" d="M13.87 2.02394C9.55 2.05394 8.35 5.30393 8.35 9.24393C8.35 14.3739 11.72 15.9539 13.46 16.4539C15.57 17.0739 18.2 17.6139 19.8 13.5739C20.76 11.1739 20.72 6.99393 20.19 5.37393C19.73 3.96393 18.19 1.99394 13.87 2.02394Z" fill="var(--fill-0, #F9C3C0)"/>
<path id="Vector_14" d="M17.07 5.58394C17.18 5.24394 16.74 4.97394 16.39 4.95394C14.8 4.85394 14.62 6.35394 13.63 7.20394C13.14 7.62394 12.57 8.01394 12.28 8.59394C11.93 9.29394 11.54 10.1239 11.5 10.9639C10.97 9.48394 8.94 13.1539 9.46 13.5639C8.12 12.5039 7.15 11.2739 6.79 9.56394C6.66 8.96394 6.64 8.34394 6.63 7.72394C6.58 5.93394 6.33 3.60394 8.19 2.56394C8.49 2.39394 9 2.43394 9.21 2.17394C9.43 1.90394 9.15 1.36394 9.47 1.02394C9.78 0.683939 10.24 0.533937 10.68 0.423937C12.4 0.00393677 14.16 -0.226062 15.88 0.323938C17.01 0.683938 18.07 1.26394 19.09 1.86394C19.39 2.04394 19.7 2.22394 19.95 2.46394C20.74 3.18394 20.99 4.36394 21.16 5.37394C21.36 6.57394 21.41 7.40394 20.89 8.52394C20.84 8.63394 20.7 8.72394 20.6 8.66394C20.52 8.61394 20.52 8.50394 20.53 8.41394C20.55 8.23394 20.58 8.03394 20.47 7.89394C20.43 7.84394 20.38 7.80394 20.32 7.77394C20.17 7.67394 20.01 7.57394 19.86 7.47394C19.58 7.28394 19.54 6.84394 19.39 6.54394C19.23 6.21394 19.01 5.90394 18.72 5.67394C18.24 5.30394 17.5 5.20394 17.05 5.60394L17.07 5.58394Z" fill="var(--fill-0, #7B502C)"/>
<path id="Vector_15" d="M11.09 11.2039C11.09 11.2039 11.02 9.74394 9.76 9.93394C8.69 10.0939 8.71001 10.7939 9.02001 12.0139C9.33001 13.2339 10.08 13.8139 10.83 13.7839C11.59 13.7539 11.09 11.2039 11.09 11.2039Z" fill="var(--fill-0, #F9C3C0)"/>
<path id="Vector_16" d="M4 90.1139L3.75 64.1239L4.22 58.0839C4.22 58.0839 7.03 60.6439 15.43 60.9239C22.34 61.1539 25.79 58.6339 25.79 58.6339L24.37 84.3739L22.69 109.414C22.69 109.414 21.49 110.194 19 110.154C16.18 110.104 14.86 109.014 14.86 109.014L15.76 87.3039L15.29 68.0039L12.58 87.8239L10.2 115.304C10.2 115.304 8.77 116.354 6.45 116.354C4.11 116.354 2.62 115.344 2.62 115.344L3.99 90.1039L4 90.1139Z" fill="var(--fill-0, #749C9F)"/>
<path id="Vector_17" d="M16.49 60.8239L17.24 41.4039C17.24 41.4039 21.74 31.9139 19.25 19.4639C19.22 19.3239 19.19 19.1939 19.16 19.0539C19.16 18.9939 19.15 18.9239 19.14 18.8539C19.19 18.8539 19.24 18.8739 19.29 18.8839C20.67 19.1439 22.15 19.5639 23.74 20.1939C24.93 20.6639 25.53 22.1039 25.94 23.3139C26.43 24.7639 26.74 26.3439 26.69 27.8839L26.59 30.5439C26.55 35.5739 26.43 40.6339 26.39 45.6639C26.36 48.8539 26.16 51.9439 25.93 55.1139C25.83 56.5139 25.8 58.8739 25.8 58.8739C25.8 58.8739 23.43 60.9839 16.53 61.1539L16.5 60.8239H16.49Z" fill="var(--fill-0, #91B1B3)"/>
<path id="Vector_18" d="M5.06 21.4539C6.58 20.7639 8.19 20.0239 9.98 19.4539V19.4039L10.01 19.4439C10.01 19.4439 12.95 33.7439 18.19 40.2139C18.1 46.3039 17.18 61.1339 17.18 61.1339C16.7 61.2239 16 61.3739 15.42 61.3639C13.92 61.3639 12.6 61.2639 11.45 61.1139C9.09 60.7539 6.45 60.3139 4.21 58.5239C4.21 58.4139 4.21 58.2639 4.21 58.0839C4.26 55.9839 4.8 49.3439 4.96 47.5239V47.3239L4.81 45.7939L4 38.4139L2.64 26.0439C2.33 24.2039 3.07 22.3439 5.07 21.4339L5.06 21.4539Z" fill="var(--fill-0, #91B1B3)"/>
<path id="Vector_19" d="M4.13 39.6439C4.13 39.6439 4.82 36.6139 5.95 32.1039C5.27 38.5839 4.99 39.6039 4.37 41.7839L4.13 39.6339V39.6439Z" fill="var(--fill-0, #004595)"/>
<path id="Vector_20" d="M16.33 20.5939C16.33 20.5939 17.67 19.4739 17.96 17.5339C17.96 17.5339 18.73 18.5439 19.16 19.0639C19.49 21.3139 19.12 22.4239 18.65 23.6339C17.58 21.8439 16.33 20.6039 16.33 20.6039" fill="var(--fill-0, #EBF1F1)"/>
<path id="Vector_21" d="M7.75 45.3139L6.61 37.6539C7.07 28.5139 4.92 21.5139 4.92 21.5139C0.499998 23.6139 0.6 26.0239 0 30.7139C0 30.7139 0.260002 44.5039 3.69 47.5639C6.68 50.6339 7.76 45.3039 7.76 45.3039L7.75 45.3139Z" fill="var(--fill-0, #91B1B3)"/>
<path id="Vector_22" d="M27.31 50.7839L14.28 53.9739V36.5439L27.31 33.3539V50.7839Z" fill="var(--fill-0, #2A424B)"/>
<path id="Vector_23" d="M25.4 39.4939C26.13 39.1039 26.87 38.7239 27.63 38.3539C27.86 38.2439 28.11 38.1339 28.36 38.1539C28.62 38.1739 28.88 38.3839 28.86 38.6339C28.85 38.8439 28.67 38.9939 28.5 39.1239C28.17 39.3839 27.83 39.6339 27.5 39.8939C27.71 40.0239 27.78 40.3139 27.71 40.5539C27.65 40.7939 27.48 40.9939 27.31 41.1639C27.52 41.2939 27.57 41.5839 27.51 41.8239C27.37 42.4139 27.59 42.5839 27.54 43.1139C27.5 43.5339 27 43.7139 26.64 43.9439C26.42 44.0839 26.23 44.2739 26 44.3939C25.71 44.5339 25.37 44.5439 25.05 44.5539C23.45 44.5839 22.02 44.4639 20.46 44.9039C20.2 43.9839 19.8 42.3939 19.46 41.5039C20.63 41.1439 21.84 41.3439 22.93 40.7939C23.77 40.3739 24.59 39.9339 25.41 39.4939H25.4Z" fill="var(--fill-0, #617F88)"/>
<path id="Vector_24" d="M22.1 44.9839C22.16 43.5739 22.03 42.1539 21.74 40.7639C16.03 41.4239 10.33 42.1239 4.63 42.8739C4.29 42.9139 3.91 42.9839 3.69 43.2539C3.53 43.4539 3.49 43.7239 3.46 43.9839C3.36 44.8439 3.26 45.7339 3.51 46.5639C4.45 49.7139 9.37 48.0639 11.61 47.6839C15.17 47.0839 18.69 46.1739 22.1 44.9839Z" fill="var(--fill-0, #91B1B3)"/>
<path id="Vector_25" d="M16.33 20.5939C16.33 20.5939 15.51 22.6239 14.79 24.4839C12.79 23.6639 11.42 22.6139 9.76 20.0039C10.24 19.2439 10.9 17.9339 10.9 17.9339C10.9 17.9339 13.23 20.1939 16.33 20.6039V20.5939Z" fill="var(--fill-0, #EBF1F1)"/>
</g>
<path id="Vector_26" d="M7.67 35.1939L11.67 36.1339L14.94 33.7939L14.8 31.7739L7.53 33.1739L7.67 35.1939Z" fill="var(--fill-0, #749C9F)"/>
<path id="Vector_27" d="M19.68 30.7139L19.88 32.7239L23.23 33.5739L25.67 31.4539L25.47 29.4439L19.68 30.7139Z" fill="var(--fill-0, #749C9F)"/>
</g>
</svg>
