<svg preserveAspectRatio="none" width="100%" height="100%" overflow="visible" style="display: block;" viewBox="0 0 17.2608 18.7692" fill="none" xmlns="http://www.w3.org/2000/svg">
<g id="Group">
<path id="Vector" d="M4.89996 16.5293C4.89996 16.5293 4.81996 16.5593 4.76996 16.5693C4.63996 16.5793 4.50996 16.5193 4.41996 16.3993C2.33996 13.7293 1.65996 11.3593 1.63996 11.2593C1.55996 10.9693 1.68996 10.6593 1.90996 10.5593C2.13996 10.4593 2.38996 10.6093 2.46996 10.8993C2.46996 10.9293 3.03996 12.8693 4.67996 15.1393C5.89996 12.9493 6.84996 10.9493 6.85996 10.9293C6.97996 10.6693 7.24996 10.5793 7.46996 10.7393C7.67996 10.8893 7.74996 11.2293 7.62996 11.4893C7.61996 11.5093 6.48996 13.8993 5.09996 16.3393C5.04996 16.4293 4.97996 16.4993 4.89996 16.5293Z" fill="var(--fill-0, #2A424B)"/>
<g id="Group_2">
<path id="Vector_2" d="M17.26 8.70929C17.32 10.6993 14.25 12.3993 10.4 12.4893C6.55997 12.5893 3.38997 11.0493 3.33997 9.04929C3.27997 7.05929 6.34997 5.35929 10.2 5.26929C14.04 5.16929 17.21 6.70929 17.26 8.70929Z" fill="var(--fill-0, #ED9000)"/>
<path id="Vector_3" d="M15.98 5.89929C15.22 1.96929 11.05 -0.620706 6.66996 0.129294C2.28996 0.869294 -0.640033 4.65929 0.119967 8.58929C0.119967 8.62929 0.23997 9.2093 0.23997 9.2093C0.67997 11.4793 4.57996 12.7193 8.95996 11.9693C13.34 11.2293 16.53 8.77929 16.09 6.50929C16.09 6.50929 15.98 5.9393 15.97 5.8893L15.98 5.89929Z" fill="var(--fill-0, #FCAF2B)"/>
</g>
<path id="Vector_4" d="M5.13996 15.6793C5.13996 15.6793 6.98996 18.6793 10.87 18.6993C9.12996 19.0193 5.59996 18.2593 4.20996 16.0193L5.14996 15.6793H5.13996Z" fill="var(--fill-0, #2A424B)"/>
</g>
</svg>
