<svg preserveAspectRatio="none" width="100%" height="100%" overflow="visible" style="display: block;" viewBox="0 0 100.348 99.0001" fill="none" xmlns="http://www.w3.org/2000/svg">
<g id="_x23_000000ff">
<path id="Vector" d="M98.999 0.288109C99.1857 0.154215 99.3926 0.0587978 99.6199 0C99.6686 0.523507 99.1552 0.813679 98.865 1.16884C95.4337 4.55756 92.053 7.99713 88.6054 11.3696C88.029 11.2905 87.3047 11.1871 86.9435 11.7633C86.2068 12.5364 86.8948 14.0238 87.9925 13.8127C88.999 13.758 89.2791 12.579 88.9706 11.7755C92.7125 8.34403 96.15 4.59005 99.8086 1.0694C99.9547 0.925292 100.135 0.864431 100.348 0.884753C100.081 1.5666 99.6118 2.13673 99.2283 2.7536C96.3468 7.27061 94.3724 12.3558 93.4106 17.6236C89.5064 19.7035 85.6996 22.0127 82.3251 24.8881C80.1762 22.6458 77.9583 20.4685 75.7708 18.2648C78.6828 14.878 80.9311 10.9719 82.9217 6.98849C87.2337 6.29653 91.3712 4.70156 95.1963 2.61351C96.501 1.90536 97.8037 1.17493 98.999 0.288109Z" fill="var(--fill-0, #838383)"/>
<path id="Vector_2" d="M72.8567 17.7636C73.4979 17.4999 74.0295 18.0538 74.4496 18.4556C76.8785 20.8257 79.2243 23.281 81.6553 25.6491C82.0571 26.0975 82.5441 26.4912 82.8322 27.0289C83.236 27.8751 81.9556 29.0419 81.2676 28.2383C78.3051 25.2636 75.3485 22.2806 72.3494 19.3444C71.7549 18.8534 72.2926 18.0011 72.8567 17.7636Z" fill="var(--fill-0, #838383)"/>
<path id="Vector_3" d="M71.6819 20.2412C74.6019 23.1267 77.5301 26.0061 80.4034 28.9383C72.9278 36.5031 65.8053 44.4109 58.4414 52.0833C54.9694 48.6762 51.5056 45.2611 48.0844 41.8034C56.0165 34.689 63.9263 27.5483 71.6819 20.2412Z" fill="var(--fill-0, #838383)"/>
<path id="Vector_4" d="M19.7627 68.8245C28.2387 59.7681 36.8343 50.8174 45.7892 42.2298C49.8638 46.2395 53.9182 50.2715 57.9929 54.2791C55.361 57.0551 52.5283 59.6402 49.7462 62.2681C38.3218 73.0005 26.6398 83.4671 14.4727 93.3553C13.8639 93.8646 13.245 94.3618 12.6464 94.8834C9.82174 92.0912 7.0438 89.2564 4.2212 86.4642C9.22923 80.4356 14.3955 74.5366 19.7627 68.8245Z" fill="var(--fill-0, #838383)"/>
<path id="Vector_5" d="M0.406316 91.2287C1.3052 89.8976 2.40307 88.7206 3.38716 87.4565C6.1388 90.1715 8.81523 92.9617 11.5933 95.6524C10.532 96.4985 9.43828 97.3 8.36682 98.13C7.79463 98.544 7.17766 99.0473 6.42484 98.9965C5.03082 98.9214 3.90252 97.9657 2.94277 97.0424C1.88761 95.977 0.751264 94.9056 0.181028 93.4872C-0.117191 92.7547 -0.0502439 91.8801 0.406316 91.2287Z" fill="var(--fill-0, #838383)"/>
</g>
</svg>
