<svg preserveAspectRatio="none" width="100%" height="100%" overflow="visible" style="display: block;" viewBox="0 0 30.9404 130.816" fill="none" xmlns="http://www.w3.org/2000/svg">
<g id="Group">
<g id="Group_2">
<path id="Vector" d="M0.380352 44.9555C0.380352 44.9555 -1.18966 43.3255 2.18034 28.4655C3.34034 23.3555 3.42035 21.9755 7.39035 20.5755C10.8303 24.6955 4.88035 45.3255 4.88035 45.3255L0.380352 44.9555Z" fill="var(--fill-0, #91B1B3)"/>
<path id="Vector_2" d="M26.5603 60.3855L25.7704 49.2155L28.2103 27.0955C28.5303 25.1855 27.7703 23.2455 25.6903 22.3055C20.9103 20.1355 15.3103 17.4555 6.28035 20.9955C5.04035 21.4855 4.58034 22.9755 4.15034 24.2255C3.64034 25.7255 3.39034 27.3455 3.45034 28.9455L3.55035 31.6855C3.59035 36.9155 3.64034 42.1455 3.68034 47.3655C3.71034 50.6755 3.87035 53.9455 4.11035 57.2555C4.21035 58.7055 4.14035 60.9555 4.14035 60.9555C4.14035 60.9555 6.86035 63.3755 14.9104 63.3355C23.6804 63.2855 26.5703 60.3855 26.5703 60.3855H26.5603Z" fill="var(--fill-0, #91B1B3)"/>
<path id="Vector_3" d="M26.9403 119.955L27.9303 122.745L27.6403 126.505C27.6403 126.505 26.0303 127.665 24.1903 127.645C23.0403 128.565 20.7503 130.715 16.0903 130.815C15.0903 130.835 13.3503 129.885 14.1003 128.855C14.5603 128.225 19.4203 125.445 21.8503 119.855C24.4603 119.595 26.9503 119.955 26.9503 119.955H26.9403Z" fill="var(--fill-0, #2A424B)"/>
<path id="Vector_4" d="M14.3203 113.075L15.1003 115.935L14.5304 119.665C14.5304 119.665 12.8404 120.685 11.0004 120.525C9.79035 121.355 7.35036 123.305 2.69036 123.035C1.69036 122.975 0.0303438 121.885 0.850344 120.925C1.36034 120.325 6.41035 117.955 9.23035 112.565C11.8503 112.515 14.3104 113.075 14.3104 113.075H14.3203Z" fill="var(--fill-0, #2A424B)"/>
<path id="Vector_5" d="M12.2704 18.2255C13.3604 17.0555 17.6103 16.5155 19.6103 18.6355C19.7503 19.6755 19.9703 20.3455 19.9703 20.3455L16.3004 21.6655L12.3603 21.1055C12.3603 21.1055 12.1704 19.0255 12.2704 18.2255Z" fill="var(--fill-0, #BFD4D5)"/>
<path id="Vector_6" d="M15.8703 14.6755C17.4503 14.6755 18.2903 15.5655 18.2903 16.3355L19.0903 21.4955C19.0203 22.3855 15.7603 21.4155 13.9703 21.4155C12.1803 21.4155 12.5103 22.3855 12.5803 21.4955L13.3603 16.1055C13.4203 15.3255 14.3004 14.6855 15.8804 14.6855L15.8703 14.6755Z" fill="var(--fill-0, #F9C3C0)"/>
<path id="Vector_7" d="M16.5203 2.10548C21.0103 2.13548 22.2503 5.51548 22.2503 9.60548C22.2503 14.9355 18.7403 16.5755 16.9403 17.1055C14.7403 17.7455 12.0203 18.3155 10.3503 14.1155C9.36033 11.6155 9.39035 7.27548 9.94035 5.58548C10.4203 4.11548 12.0203 2.06548 16.5103 2.10548H16.5203Z" fill="var(--fill-0, #F9C3C0)"/>
<path id="Vector_8" d="M13.1904 5.81548C13.0704 5.46548 13.5303 5.18548 13.9003 5.16548C15.5503 5.06548 15.7404 6.62548 16.7704 7.50548C17.2804 7.94548 17.8703 8.34548 18.1703 8.94548C18.5303 9.67548 18.9403 10.5355 18.9803 11.4055C19.5403 9.86548 21.6403 13.6855 21.1003 14.1155C21.6403 13.6855 22.1203 13.1855 22.6203 12.7255C23.2703 12.1355 23.5404 11.3555 23.7704 10.5255C24.0004 9.68548 24.2303 8.83549 24.3403 7.96549C24.4303 7.28549 24.5204 6.42548 24.3604 5.75548C24.0904 4.67548 23.4403 3.23548 22.4303 2.66548C22.1103 2.48548 21.5903 2.52548 21.3703 2.25548C21.1403 1.97548 21.4303 1.41548 21.1003 1.05548C20.7803 0.705483 20.3003 0.545484 19.8403 0.435484C18.0503 0.00548425 16.2203 -0.234516 14.4303 0.335484C13.2503 0.705484 12.1603 1.30548 11.0903 1.93548C10.2203 2.44548 9.61035 2.87548 9.26035 3.83548C9.05035 4.42548 8.85034 5.01548 8.74034 5.62548C8.63034 6.25548 8.74034 6.79548 8.74034 7.41548C8.84034 7.88548 9.00035 8.41548 9.20035 8.84548C9.25035 8.95548 9.39035 9.05548 9.50035 8.98548C9.58035 8.93548 9.58034 8.81548 9.57034 8.72548C9.55034 8.54548 9.52036 8.33548 9.63036 8.18548C9.67036 8.13548 9.73035 8.09548 9.78035 8.05548C9.94035 7.95548 10.1003 7.84548 10.2603 7.74548C10.5503 7.55548 10.5904 7.08548 10.7504 6.77548C10.9204 6.43548 11.1404 6.10548 11.4404 5.87548C11.9404 5.48548 12.7103 5.38549 13.1803 5.80549L13.1904 5.81548Z" fill="var(--fill-0, #7B502C)"/>
<path id="Vector_9" d="M26.9903 93.6855L27.0504 66.6655L26.5603 60.3855C26.5603 60.3855 23.6403 63.0555 14.9003 63.3355C7.72035 63.5755 4.13036 60.9555 4.13036 60.9555L5.45035 87.9155L7.07034 113.745C7.07034 113.745 8.40035 114.555 11.1604 114.505C14.2904 114.445 15.7603 113.325 15.7603 113.325L14.7103 90.5555L15.2103 66.3055L17.1703 92.3055L19.7204 119.865C19.7204 119.865 21.4303 120.955 24.2103 120.965C27.0203 120.965 28.8004 119.915 28.8004 119.915L26.9803 93.6755L26.9903 93.6855Z" fill="var(--fill-0, #749C9F)"/>
<path id="Vector_10" d="M13.8004 63.2355L13.0204 43.0555C13.0204 43.0555 8.34035 33.1955 10.9303 20.2455C10.9603 20.1055 10.9904 19.9655 11.0204 19.8255C11.0204 19.7555 11.0303 19.6855 11.0403 19.6155C10.9903 19.6155 10.9404 19.6355 10.8904 19.6455C9.45035 19.9155 7.92036 20.3555 6.27036 21.0055C5.03036 21.4955 4.41034 22.9955 3.99034 24.2555C3.48034 25.7555 3.15035 27.4055 3.21035 29.0055L3.32035 31.7655C3.36035 36.9955 3.48035 42.2555 3.53035 47.4855C3.56035 50.7955 3.77035 54.0055 4.00035 57.3155C4.10035 58.7655 4.13036 61.2255 4.13036 61.2255C4.13036 61.2255 6.59036 63.4155 13.7704 63.5955L13.8004 63.2555V63.2355Z" fill="var(--fill-0, #91B1B3)"/>
<path id="Vector_11" d="M25.6803 22.3055C24.1003 21.5855 22.4203 20.8155 20.5603 20.2255L20.5403 20.1755L20.5204 20.2155C20.5204 20.2155 17.4703 35.0855 12.0103 41.8055C12.1103 48.1355 13.0603 63.5555 13.0603 63.5555C13.5503 63.6455 14.2804 63.8055 14.8904 63.7955C16.4504 63.7955 17.8204 63.6855 19.0204 63.5355C21.4804 63.1655 24.2104 62.7055 26.5504 60.8455C26.5504 60.7355 26.5504 60.5755 26.5504 60.3855C26.5004 58.1955 25.9404 51.2955 25.7704 49.4155V49.2155L25.9303 47.6255L26.7803 39.9555L28.2003 27.0955C28.5203 25.1855 27.7603 23.2455 25.6803 22.3055Z" fill="var(--fill-0, #91B1B3)"/>
<path id="Vector_12" d="M26.6404 41.2255C26.6404 41.2255 25.9304 38.0755 24.7504 33.3855C25.4604 40.1255 25.7404 41.1855 26.3904 43.4555L26.6404 41.2255Z" fill="var(--fill-0, #004595)"/>
<path id="Vector_13" d="M13.9703 21.4155C13.9703 21.4155 12.5803 20.2555 12.2703 18.2355C12.2703 18.2355 11.4703 19.2855 11.0203 19.8255C10.6803 22.1655 11.0603 23.3155 11.5503 24.5755C12.6603 22.7155 13.9603 21.4255 13.9603 21.4255" fill="var(--fill-0, #EBF1F1)"/>
<path id="Vector_14" d="M22.8804 47.1155L24.0703 39.1555C23.5903 29.6555 25.8304 22.3755 25.8304 22.3755C30.4204 24.5555 30.3204 27.0555 30.9404 31.9455C30.9404 31.9455 30.6704 46.2855 27.1104 49.4655C24.0004 52.6555 22.8804 47.1155 22.8804 47.1155Z" fill="var(--fill-0, #91B1B3)"/>
<path id="Vector_15" d="M23.2304 38.0255C23.3704 37.7955 23.5204 37.5655 23.7004 37.3655C23.9104 37.1355 24.1703 36.9455 24.4303 36.7555C24.9603 36.3755 25.4904 35.9955 26.0204 35.6055C26.0804 35.5655 26.1504 35.5155 26.2204 35.5255C26.3804 35.5455 26.3804 35.7755 26.3304 35.9255C26.1504 36.4455 25.8204 36.9055 25.3804 37.2355C26.2704 36.9955 27.1604 36.7455 28.0504 36.5055C28.2604 36.7155 28.1304 37.1355 27.8404 37.1955C28.0904 37.2955 28.1104 37.6655 27.9404 37.8755C27.7804 38.0855 27.5004 38.1655 27.2504 38.2355C27.5604 38.3755 27.5903 38.8355 27.4003 39.1255C27.2203 39.4155 26.9104 39.5955 26.6604 39.8255C25.5004 40.8755 25.3604 42.7855 23.8604 43.5655C22.8804 44.0755 21.7604 43.5155 20.7204 43.6055C20.5604 43.6155 20.1604 43.7955 20.0304 43.7455C19.8004 43.6555 19.8604 43.2055 19.8604 42.9755C19.8504 42.2955 19.9303 41.6155 19.9903 40.9355C20.4803 40.9455 20.9703 40.9355 21.4603 40.8855C21.5003 40.8855 21.5504 40.8855 21.5904 40.8555C21.6304 40.8255 21.6603 40.7855 21.6803 40.7355C21.9003 40.2455 21.9803 39.8355 22.2903 39.3755C22.6003 38.9155 22.9404 38.4755 23.2304 38.0055V38.0255Z" fill="var(--fill-0, #617F88)"/>
<path id="Vector_16" d="M3.65035 38.1355C3.56035 38.1855 3.46035 38.2355 3.37035 38.2955C3.21035 38.3955 3.09035 38.4455 2.92035 38.4955C2.77035 38.5355 2.62035 38.5555 2.53035 38.6955C2.47035 38.7755 2.45036 38.8755 2.41036 38.9655C2.26036 39.2855 1.82036 39.4355 1.77036 39.7855C1.76036 39.8755 1.77035 39.9755 1.75035 40.0655C1.73035 40.1755 1.66034 40.2655 1.60034 40.3655C1.51034 40.5155 1.34035 40.9955 1.48035 41.1655C1.59035 41.2955 2.08035 41.1355 2.25035 41.1155C2.87035 41.0255 3.50035 40.9455 4.12035 40.9155C5.35035 40.8455 6.61034 40.9455 7.74034 41.4555C7.91034 41.5255 8.71035 39.2855 8.76035 39.0055C8.76035 38.9655 6.43035 38.2355 6.22035 38.1655C5.79035 38.0355 5.35036 37.9355 4.91036 37.8755C4.43036 37.8155 4.08035 37.9155 3.65035 38.1355Z" fill="var(--fill-0, #617F88)"/>
<path id="Vector_17" d="M20.2403 45.5855L20.5604 40.5655L7.09035 41.0155C7.09035 41.0155 0.0303533 39.1255 0.000353323 43.5055C-0.00964668 44.8755 0.190353 45.8555 0.890353 46.3455C2.79035 47.6955 7.34035 46.4455 9.20035 46.3655C14.5703 46.1255 20.2403 45.5855 20.2403 45.5855Z" fill="var(--fill-0, #91B1B3)"/>
<path id="Vector_18" d="M7.15034 41.0255L8.76035 38.6155C8.76035 38.6155 13.0604 39.9555 14.3904 40.4455C17.6204 41.6255 20.3804 42.5855 23.5504 43.9155C25.1904 44.6055 27.2703 45.2055 27.0903 48.0255C26.7603 53.1455 19.6204 49.1455 17.2504 48.2255C12.2404 46.2755 7.15034 41.0255 7.15034 41.0255Z" fill="var(--fill-0, #91B1B3)"/>
<g id="Group_3">
<path id="Vector_19" d="M17.3004 11.6055L20.0504 10.8055L20.0703 11.2055L17.3304 12.0055L17.3004 11.6055Z" fill="var(--fill-0, #2A424B)"/>
<path id="Vector_20" d="M20.0504 10.8055L21.8304 11.4855C21.9704 11.4555 22.0803 11.5155 22.0903 11.6255C22.0903 11.7355 21.9804 11.8555 21.8304 11.8855L20.0703 11.1955L20.0504 10.7955V10.8055Z" fill="var(--fill-0, #2A424B)"/>
</g>
<g id="Group_4">
<path id="Vector_21" d="M14.3304 11.0955L12.0504 10.6255C11.9304 10.6055 11.7904 10.6955 11.8004 10.7955V10.9355C11.8104 11.0255 11.8803 11.0955 11.9803 11.1155L14.2603 11.5855C14.3803 11.6055 14.5203 11.5155 14.5103 11.4155V11.2755C14.5003 11.1855 14.4304 11.1155 14.3304 11.0955Z" fill="var(--fill-0, #2A424B)"/>
<path id="Vector_22" d="M17.2803 11.1955L17.4303 13.8055C17.4303 13.9355 17.2503 14.0655 17.1003 14.0355L14.0903 13.4055C13.9603 13.3755 13.8704 13.2855 13.8604 13.1755L13.7103 10.5655C13.7103 10.4355 13.8903 10.3055 14.0403 10.3355L17.0504 10.9655C17.1804 10.9955 17.2703 11.0855 17.2803 11.1955ZM16.7603 11.2055L14.3503 10.7055C14.2303 10.6755 14.0803 10.7855 14.0903 10.8855L14.2103 12.9755C14.2103 13.0655 14.2804 13.1355 14.3904 13.1655L16.8004 13.6655C16.9204 13.6955 17.0703 13.5855 17.0603 13.4855L16.9404 11.3955C16.9404 11.3055 16.8703 11.2355 16.7603 11.2055Z" fill="var(--fill-0, #2A424B)"/>
<path id="Vector_23" d="M12.5303 10.2055L12.6803 12.8155C12.6803 12.9455 12.5003 13.0755 12.3503 13.0455L9.34035 12.4155C9.21035 12.3855 9.12035 12.2955 9.11035 12.1855L8.96034 9.57548C8.96034 9.44548 9.14034 9.31548 9.29034 9.34548L12.3004 9.97548C12.4304 10.0055 12.5203 10.0955 12.5303 10.2055ZM12.0103 10.2155L9.60034 9.71549C9.48034 9.68549 9.33035 9.79549 9.34035 9.89549L9.46034 11.9855C9.46034 12.0755 9.53035 12.1455 9.64035 12.1755L12.0504 12.6755C12.1704 12.7055 12.3203 12.5955 12.3103 12.4955L12.1904 10.4055C12.1904 10.3155 12.1203 10.2455 12.0103 10.2155Z" fill="var(--fill-0, #2A424B)"/>
</g>
<path id="Vector_24" d="M19.4204 11.6555C19.4204 11.6555 19.5004 10.1355 20.8104 10.3355C21.9304 10.5055 21.9004 11.2255 21.5804 12.4955C21.2604 13.7655 20.4804 14.3655 19.7004 14.3355C18.9104 14.2955 19.4303 11.6555 19.4303 11.6555H19.4204Z" fill="var(--fill-0, #F9C3C0)"/>
<path id="Vector_25" d="M13.9704 21.4155C13.9704 21.4155 14.8203 23.5255 15.5703 25.4555C17.6503 24.6055 19.0703 23.5155 20.7903 20.7955C20.2903 20.0055 19.6003 18.6455 19.6003 18.6455C19.6003 18.6455 17.1803 20.9955 13.9603 21.4155H13.9704Z" fill="var(--fill-0, #EBF1F1)"/>
</g>
<path id="Vector_26" d="M22.8503 37.3855L18.8604 38.3255L15.5804 35.9855L15.7204 33.9655L23.0004 35.3655L22.8503 37.3855Z" fill="var(--fill-0, #749C9F)"/>
<path id="Vector_27" d="M10.8403 32.9055L10.6404 34.9155L7.29034 35.7755L4.86035 33.6455L5.06035 31.6355L10.8403 32.9055Z" fill="var(--fill-0, #749C9F)"/>
</g>
</svg>
