<svg preserveAspectRatio="none" width="100%" height="100%" overflow="visible" style="display: block;" viewBox="0 0 122 94.9999" fill="none" xmlns="http://www.w3.org/2000/svg">
<g id="icon">
<path id="Vector" d="M119.805 10.2913C119.502 9.62884 118.633 8.99374 118.036 8.54826C118.023 8.52882 118.007 8.50962 117.995 8.49186C118.008 8.50794 118.017 8.5257 118.03 8.54154C117.324 8.01565 116.433 7.66042 115.376 7.54785L74.6841 3.17514C71.0154 2.77935 66.7909 5.3687 65.2743 8.92606L34.9404 80.2542C34.3113 81.7274 34.2537 83.1474 34.6561 84.3309C34.7808 87.7385 37.9387 90.3696 41.0327 90.7025C41.566 90.7604 42.0992 90.8168 42.6325 90.8746C45.6148 91.1948 48.594 91.5148 51.5732 91.8364C59.6642 92.7048 67.7524 93.5732 75.8403 94.445C80.0361 94.8952 84.1359 95.8376 87.7344 93.3497C91.7258 90.5981 93.4758 86.0502 95.9086 80.0466C105.031 57.5287 111.421 41.6028 120.926 19.2616C121.463 17.9943 122.028 16.7577 121.999 15.3135C121.999 15.3118 121.999 15.3135 121.999 15.3118C121.932 13.4159 121.066 11.8174 119.805 10.2913ZM64.3354 81.6679C63.5946 83.3034 61.5447 84.4857 59.7726 84.3038C58.0037 84.1236 57.1673 82.6489 57.9079 81.0136C58.6456 79.3829 60.6826 78.1991 62.4516 78.3808C64.2204 78.5591 65.0701 80.0389 64.3354 81.6679ZM87.073 74.4584L46.0871 70.0535L70.9196 11.6918L111.902 16.0984L87.073 74.4584Z" fill="var(--fill-0, #777777)"/>
<path id="Vector_2" d="M18.6997 3.27437L15.6154 0C9.42399 5.90693 4.63458 13.4815 2.05116 22.2898C-0.535356 31.1058 -0.592781 40.0764 1.41257 48.4262L5.76784 47.3584C3.94143 39.7516 3.99552 31.6015 6.3521 23.5699C8.70534 15.5433 13.0608 8.66021 18.6997 3.27437Z" fill="var(--fill-0, #777777)"/>
<path id="Vector_3" d="M18.2454 27.1112C16.3456 33.5987 16.301 40.2099 17.7793 46.3645L22.1345 45.2935C20.8383 39.8803 20.8764 34.0893 22.5465 28.3898C24.2197 22.6854 27.3138 17.7981 31.3242 13.9722L28.2397 10.6913C23.6798 15.0431 20.1516 20.6172 18.2454 27.1112Z" fill="var(--fill-0, #777777)"/>
<path id="Vector_4" d="M38.7459 33.2093C39.7358 29.8322 41.575 26.952 43.96 24.6698L40.8754 21.3923C37.9539 24.1857 35.671 27.7541 34.4479 31.9293C33.225 36.1009 33.2122 40.3497 34.1605 44.2899L38.5158 43.2237C37.7466 40.0074 37.7561 36.5835 38.7459 33.2093Z" fill="var(--fill-0, #777777)"/>
</g>
</svg>
