<svg preserveAspectRatio="none" width="100%" height="100%" overflow="visible" style="display: block;" viewBox="0 0 128.719 75.8784" fill="none" xmlns="http://www.w3.org/2000/svg">
<g id="_x23_010101ff">
<path id="Vector" d="M94.9028 8.09201C100.351 5.42396 105.759 2.67612 111.202 0C114.616 7.25047 118.112 14.4631 121.548 21.7016C123.933 26.6789 126.374 31.6302 128.719 36.6255C123.333 39.1799 118.012 41.876 112.608 44.3904C109.107 37.1977 105.533 30.039 102.068 22.8283C99.7185 17.8969 97.2757 13.0113 94.9028 8.09201Z" fill="var(--fill-0, #838383)"/>
<path id="Vector_2" d="M10.5028 18.6587C12.9895 13.5777 15.4482 8.48675 17.9747 3.42786C23.3149 6.13388 28.687 8.78394 34.0311 11.49C28.007 23.6678 22.1105 35.9076 16.0864 48.0835C10.7422 45.3915 5.34615 42.7932 0 40.1052C3.57733 32.9942 6.97935 25.7955 10.5028 18.6587Z" fill="var(--fill-0, #838383)"/>
<path id="Vector_3" d="M66.2655 12.6344C67.2226 12.2176 68.3034 12.2934 69.3105 12.4508C70.6645 12.6841 71.9886 13.0451 73.3345 13.3203C77.4882 14.2674 81.7297 14.7521 85.9731 15.0771C87.5384 15.2745 89.1736 15.2844 90.6573 14.6803C92.2007 14.0282 93.6922 13.2445 95.112 12.3572C99.6625 21.5897 104.119 30.8683 108.704 40.083C107.015 40.733 105.427 41.6463 104.034 42.8009C103.194 43.469 102.41 44.2048 101.525 44.8109C99.174 42.4479 96.4222 40.5436 93.756 38.5614C90.374 36.1467 87.0099 33.7018 83.5463 31.4027C80.0965 29.0955 76.3994 27.1892 72.7124 25.2948C71.47 24.7205 70.1758 23.9049 68.7462 24.202C66.3892 24.6645 64.1178 25.5978 61.7309 25.8411C60.5904 28.5311 58.8215 31.0237 56.3749 32.6668C54.2332 34.1325 51.5671 34.9361 48.9708 34.6151C47.9538 34.4854 46.7433 33.971 46.5281 32.8583C46.6577 32.0328 47.2061 31.3587 47.5888 30.6368C49.2658 27.7553 50.7395 24.7543 51.938 21.6415C52.3308 20.7621 52.612 19.7271 53.4615 19.1689C54.267 18.6564 55.1684 18.3273 56.0378 17.9406C57.9801 17.0612 59.9064 16.1459 61.7848 15.1329C63.3123 14.3612 64.6942 13.3223 66.2655 12.6344Z" fill="var(--fill-0, #838383)"/>
<path id="Vector_4" d="M53.1505 13.9147C54.5483 13.2705 55.9601 12.3573 57.5713 12.5428C59.1248 12.7163 60.5585 13.3962 62.0341 13.8728C59.3501 15.3684 56.5524 16.6407 53.7408 17.869C53.0986 18.1541 52.4386 18.4951 52.0418 19.1014C51.28 20.248 50.9072 21.588 50.3488 22.8363C49.2441 25.5881 47.8184 28.1944 46.3228 30.7509C45.902 31.5086 45.3058 32.3401 45.565 33.2534C46.0196 34.6991 47.573 35.4768 48.9888 35.6503C51.5273 35.9275 54.1037 35.1957 56.2912 33.9294C59.055 32.3021 61.067 29.642 62.3593 26.7447C64.6245 26.5473 66.7223 25.5941 68.9438 25.1794C69.562 25.0477 70.196 25.1954 70.7544 25.4724C73.6279 26.8403 76.4316 28.348 79.2034 29.9133C82.6391 31.8795 85.8656 34.1787 89.0861 36.4758C92.4002 38.8508 95.7822 41.14 98.9309 43.7344C100.04 44.7454 101.346 45.6527 101.966 47.0685C102.748 48.6318 102.861 50.5921 101.984 52.1414C101.222 53.5194 99.6288 54.3528 98.0634 54.2592C96.6377 54.1615 95.4451 53.298 94.2388 52.624C90.0712 50.0696 85.8177 47.6487 81.5883 45.212C84.6692 47.9897 88.093 50.3607 91.4171 52.8374C92.484 53.673 93.8738 54.331 94.2966 55.7268C95.4033 58.4608 93.7881 62.0242 90.8448 62.6882C89.2316 63.1488 87.6942 62.2714 86.3382 61.5037C83.0999 59.6293 79.8295 57.8106 76.651 55.8365C79.1895 58.062 81.8974 60.1138 84.8228 61.8088C85.2515 62.0621 85.7081 62.2755 86.109 62.5785C86.4102 63.9464 86.2167 65.4699 85.4291 66.6544C84.4739 68.1181 82.5935 68.8619 80.8886 68.5468C79.3771 68.3076 78.0849 67.43 76.7668 66.7122C74.5094 65.44 72.278 64.1218 70.0327 62.8318C72.1505 64.6006 74.3399 66.3075 76.697 67.7492C77.0899 68.0205 77.6562 68.0942 77.9174 68.5248C78.1766 70.1899 77.6681 72.0683 76.2624 73.0954C74.707 74.2399 72.6231 74.1781 70.8165 73.8032C69.3967 73.4862 67.937 73.0813 66.7386 72.2299C67.7874 70.3753 68.4555 68.0005 67.4605 65.9843C66.7686 64.4389 65.0655 63.406 63.3666 63.6353C64.242 62.5983 64.9758 61.3621 65.0974 59.9842C65.3507 57.8165 64.0107 55.5692 61.9767 54.7776C60.5829 54.1794 58.9477 54.3768 57.6555 55.1346C58.1341 53.4675 57.6575 51.5711 56.4292 50.3468C55.3963 49.254 53.8608 48.6957 52.3691 48.7694C50.8856 48.8791 49.4877 49.5791 48.3909 50.5682C45.8464 52.8394 43.5372 55.3579 41.0307 57.6711C40.8812 57.5933 40.5801 57.4398 40.4286 57.362C40.923 55.5694 40.0278 53.679 38.7316 52.4586C36.9847 50.7715 34.1153 50.3129 32.0035 51.5812C29.487 49.7227 27.2237 47.4954 24.44 46.0176C22.9723 45.22 21.4309 44.5719 19.9074 43.8979C24.5257 34.434 29.142 24.9661 33.8501 15.544C36.6857 16.7245 39.6589 18.3039 42.8314 17.7594C46.4444 17.0195 49.8302 15.4781 53.1505 13.9147Z" fill="var(--fill-0, #838383)"/>
<path id="Vector_5" d="M51.6728 49.9239C53.9201 49.3097 56.4925 50.8791 56.8455 53.2042C57.0548 54.9869 56.006 56.5882 54.8454 57.8345C52.3946 60.5107 50.0517 63.2864 47.5112 65.8786C46.7635 66.6822 45.7344 67.2665 44.6178 67.2905C41.9238 67.4081 39.4013 65.0591 39.3374 62.3591C39.3414 61.4459 39.5907 60.4687 40.2607 59.8127C42.9008 57.334 45.4374 54.7497 48.0456 52.2371C49.0864 51.248 50.225 50.235 51.6728 49.9239Z" fill="var(--fill-0, #838383)"/>
<path id="Vector_6" d="M33.8356 51.9937C36.5077 51.4215 39.4909 53.623 39.5826 56.3827C39.4968 58.8833 36.6114 60.5822 34.3162 59.8505C31.7119 59.1586 30.3421 55.8803 31.4965 53.4933C31.9293 52.5979 32.9244 52.2031 33.8356 51.9937Z" fill="var(--fill-0, #838383)"/>
<path id="Vector_7" d="M59.4657 55.5253C61.5694 55.0507 63.7509 56.7078 64.0899 58.7876C64.4449 60.301 63.6153 61.7447 62.706 62.8874C60.6621 65.4937 58.4885 67.9963 56.3468 70.5228C55.7746 71.135 55.278 71.9047 54.4445 72.1839C51.5471 73.2587 47.9298 70.8539 47.87 67.7471C47.8261 67.1768 48.195 66.7101 48.55 66.3113C51.3776 63.2205 54.1354 60.0638 56.9731 56.9829C57.659 56.293 58.5085 55.7407 59.4657 55.5253Z" fill="var(--fill-0, #838383)"/>
<path id="Vector_8" d="M62.8058 64.8357C63.6015 64.5486 64.5367 64.5745 65.2685 65.0272C66.3653 65.6434 66.9316 66.9335 66.9655 68.1538C66.9136 69.6993 66.2297 71.1349 65.482 72.461C64.7262 73.7073 63.8169 75.0115 62.405 75.5598C60.8078 76.1839 58.8376 75.8888 57.5773 74.6943C56.8914 74.0582 56.4706 73.1808 56.2532 72.2835C56.5663 71.7411 57.0409 71.3164 57.4357 70.8358C58.8634 69.1309 60.2713 67.406 61.7231 65.7189C62.0302 65.3701 62.3413 64.9773 62.8058 64.8357Z" fill="var(--fill-0, #838383)"/>
</g>
</svg>
